<svg width="375" height="1624" viewBox="0 0 375 1624" fill="none" xmlns="http://www.w3.org/2000/svg">
<mask id="mask0_4_560" style="mask-type:luminance" maskUnits="userSpaceOnUse" x="0" y="812" width="375" height="812">
<path d="M375 812H0V1624H375V812Z" fill="white"/>
</mask>
<g mask="url(#mask0_4_560)">
<path d="M375 812H0V1624H375V812Z" fill="url(#paint0_radial_4_560)"/>
<path d="M350 1160.4L293.7 1104.1L237.4 1047.8C224.1 1034.5 206.5 1027.2 187.7 1027.2C168.9 1027.2 151.3 1034.5 138 1047.8L75.1999 1110.6L24.9999 1160.7C-2.40005 1188.1 -2.40005 1232.7 24.9999 1260.1L74.7999 1309.9L137.6 1372.7C150.9 1386 168.5 1393.3 187.3 1393.3C206.1 1393.3 223.7 1386 237 1372.7L293.5 1316.2L350 1259.7C377.3 1232.3 377.3 1187.8 350 1160.4Z" fill="url(#paint1_radial_4_560)"/>
<path opacity="0.3" d="M187.6 1201.1L95.3999 1108.9L148.2 1056.1C170 1034.3 205.2 1034.3 227 1056.1L279.8 1108.9L187.6 1201.1Z" fill="url(#paint2_linear_4_560)"/>
<path opacity="0.3" d="M196.6 1210.1L288.8 1302.3L341.6 1249.5C363.4 1227.7 363.4 1192.5 341.6 1170.7L288.8 1117.9L196.6 1210.1Z" fill="url(#paint3_linear_4_560)"/>
<path opacity="0.3" d="M187.4 1219.3L279.6 1311.5L226.8 1364.3C205 1386.1 169.8 1386.1 148 1364.3L95.2 1311.5L187.4 1219.3Z" fill="url(#paint4_linear_4_560)"/>
<path opacity="0.3" d="M178.4 1210.3L86.2 1118.1L33.4 1170.9C11.6 1192.7 11.6 1227.9 33.4 1249.7L86.2 1302.5L178.4 1210.3Z" fill="url(#paint5_linear_4_560)"/>
<path d="M163.7 1267.3L130.4 1234C117.3 1220.9 117.3 1199.5 130.4 1186.4L163.7 1153.1C176.8 1140 198.2 1140 211.3 1153.1L244.6 1186.4C257.7 1199.5 257.7 1220.9 244.6 1234L211.3 1267.3C198.2 1280.5 176.8 1280.5 163.7 1267.3Z" fill="url(#paint6_radial_4_560)"/>
<path d="M187.6 1201.1L223.4 1165.3L211.2 1153.1C198.1 1140 176.7 1140 163.6 1153.1L151.6 1165.1L187.6 1201.1Z" fill="url(#paint7_linear_4_560)"/>
<path d="M232.6 1246L244.6 1234C257.7 1220.9 257.7 1199.5 244.6 1186.4L232.4 1174.2L196.6 1210L232.6 1246Z" fill="url(#paint8_linear_4_560)"/>
<path d="M187.4 1219.3L151.6 1255.1L163.8 1267.3C176.9 1280.4 198.3 1280.4 211.4 1267.3L223.4 1255.3L187.4 1219.3Z" fill="url(#paint9_linear_4_560)"/>
<path d="M142.4 1174.4L130.4 1186.4C117.3 1199.5 117.3 1220.9 130.4 1234L142.6 1246.2L178.4 1210.4L142.4 1174.4Z" fill="url(#paint10_linear_4_560)"/>
<path d="M143.5 1209.1H158.6C158.9 1209.1 159.1 1209.1 159.4 1209C160.1 1208.9 160.5 1208.4 160.6 1207.7C160.7 1207 160.3 1206.4 159.6 1206.1C158.9 1205.9 158.2 1206.1 157.9 1206.6C157.8 1206.7 157.8 1206.8 157.7 1207C157.7 1207.1 157.6 1207.1 157.6 1207.2C157.3 1207.7 156.8 1207.9 156.3 1207.7C155.8 1207.5 155.5 1206.9 155.7 1206.4C156.1 1205 157.1 1204.2 158.6 1203.9C160.2 1203.6 162.1 1204.3 162.7 1206.4C163 1207.6 162.8 1208.9 162.1 1209.8C161.4 1210.7 160.4 1211.2 159.1 1211.2C157.3 1211.2 155.5 1211.2 153.6 1211.2H149.9C147.8 1211.2 145.7 1211.2 143.6 1211.2C143.3 1211.2 143.1 1211.2 142.9 1211.1C142.3 1211 142 1210.6 142 1210C142 1209.5 142.4 1209.1 142.9 1209C143 1209.1 143.2 1209.1 143.5 1209.1ZM154.4 1220.6C156.5 1220.3 157.7 1218.6 157.5 1216.5C157.3 1214.8 155.8 1213.4 154 1213.3C153 1213.2 151.9 1213.3 150.9 1213.3C150.5 1213.3 150.2 1213.3 149.8 1213.3H148.2C147.2 1213.3 146.1 1213.3 145.1 1213.3C144.5 1213.3 144.2 1213.5 144 1213.9C143.8 1214.2 143.9 1214.6 144.1 1214.9C144.3 1215.2 144.7 1215.4 145.1 1215.4C146.5 1215.4 148 1215.4 149.4 1215.4C150.8 1215.4 152.1 1215.4 153.5 1215.4C153.8 1215.4 154.1 1215.4 154.4 1215.5C155 1215.7 155.4 1216.2 155.4 1216.9C155.4 1217.6 155 1218.1 154.4 1218.4C153.8 1218.6 153.1 1218.4 152.7 1217.9C152.6 1217.7 152.5 1217.6 152.4 1217.4C152.3 1217.3 152.2 1217.1 152.2 1217C152 1216.7 151.8 1216.6 151.5 1216.6C151.4 1216.6 151.3 1216.6 151.2 1216.6C150.9 1216.7 150.6 1216.8 150.5 1217.1C150.3 1217.4 150.3 1217.7 150.4 1218.1C150.9 1219.8 152.7 1220.8 154.4 1220.6ZM144.2 1205C143.9 1205 143.7 1205 143.5 1205.1C143 1205.2 142.7 1205.7 142.8 1206.3C142.9 1206.8 143.3 1207.1 144 1207.1C144.7 1207.1 145.3 1207.1 146 1207.1C146.3 1207.1 146.6 1207.1 146.9 1207.1H147.7C148 1207.1 148.2 1207.1 148.5 1207.1C148.8 1207.1 149.1 1207.1 149.5 1207.1C150.7 1207.1 151.7 1206.7 152.3 1206C153 1205.3 153.3 1204.3 153.2 1203.1C153.1 1201.4 151.9 1200.1 150.2 1199.9C148.5 1199.7 146.7 1200.7 146.2 1202.2C146.2 1202.3 146.1 1202.5 146.1 1202.6C146 1203.1 146.4 1203.6 146.8 1203.7C147.3 1203.9 147.7 1203.8 148 1203.3C148.1 1203.2 148.1 1203.1 148.2 1203C148.3 1202.9 148.3 1202.8 148.4 1202.7C148.8 1202.1 149.5 1201.9 150.2 1202.1C150.8 1202.3 151.2 1202.9 151.2 1203.6C151.2 1204.3 150.8 1204.9 150.1 1205C149.7 1205.1 149.4 1205.1 148.9 1205.1C148.1 1205.1 147.2 1205.1 146.4 1205.1C145.6 1205 144.9 1205 144.2 1205Z" fill="url(#paint11_linear_4_560)"/>
<path d="M142.7 1231.6C142.4 1231.5 142.1 1231.3 141.9 1231C141.7 1230.8 141.5 1230.5 141.4 1230.2C141.3 1229.9 141.2 1229.6 141.3 1229.3C141.4 1229 141.4 1228.6 141.6 1228.3C141.8 1228 141.9 1227.7 142.2 1227.5C142.4 1227.3 142.7 1227.1 143 1227C143.3 1226.9 143.6 1226.8 143.9 1226.9C144.2 1226.9 144.5 1227 144.9 1227.1C145.2 1227.3 145.5 1227.5 145.8 1227.7C146.1 1227.9 146.2 1228.2 146.3 1228.5L145.9 1228.7C145.8 1228.4 145.7 1228.2 145.5 1228C145.3 1227.8 145.1 1227.7 144.8 1227.5C144.5 1227.4 144.3 1227.3 144 1227.3C143.7 1227.3 143.5 1227.3 143.3 1227.4C143.1 1227.5 142.9 1227.6 142.7 1227.8C142.5 1228 142.4 1228.2 142.2 1228.5C142.1 1228.8 142 1229 142 1229.3C142 1229.6 142 1229.8 142.1 1230.1C142.2 1230.4 142.3 1230.6 142.5 1230.7C142.7 1230.9 142.9 1231 143.1 1231.2C143.4 1231.3 143.6 1231.4 143.9 1231.4C144.2 1231.4 144.4 1231.4 144.7 1231.3L144.9 1231.7C144.6 1231.8 144.3 1231.9 143.9 1231.9C143.4 1231.9 143.1 1231.8 142.7 1231.6ZM144.4 1229.5L144.2 1229.9L141.7 1228.8L141.9 1228.4L144.4 1229.5Z" fill="white"/>
<path d="M138.8 1226.2L139.1 1226.6L136.2 1227.3L135.8 1226.9L138.8 1226.2ZM141.8 1225.5L138.7 1229.3L138.3 1229L141.4 1225.2L141.8 1225.5ZM139.2 1223.4L139.1 1226.5L138.6 1226.4L138.7 1223L139.2 1223.4ZM140.1 1227.1L139.8 1227.5L138.6 1226.5L138.9 1226.1L140.1 1227.1Z" fill="white"/>
<path d="M137.2 1220.9C137.4 1221.2 137.6 1221.5 137.7 1221.8C137.8 1222.1 137.8 1222.4 137.8 1222.8C137.8 1223.1 137.7 1223.4 137.5 1223.7C137.3 1224 137.1 1224.2 136.8 1224.5C136.5 1224.7 136.2 1224.9 135.9 1224.9C135.6 1225 135.3 1225 134.9 1224.9C134.6 1224.8 134.3 1224.7 134 1224.6C133.7 1224.4 133.5 1224.2 133.2 1223.9C133 1223.6 132.8 1223.3 132.7 1223C132.6 1222.7 132.6 1222.4 132.7 1222L133.2 1222.1C133.2 1222.4 133.2 1222.7 133.2 1222.9C133.3 1223.1 133.4 1223.4 133.6 1223.6C133.8 1223.8 134 1224 134.2 1224.2C134.4 1224.3 134.7 1224.4 134.9 1224.5C135.2 1224.5 135.4 1224.5 135.7 1224.5C136 1224.4 136.2 1224.3 136.4 1224.1C136.6 1223.9 136.8 1223.7 137 1223.5C137.2 1223.3 137.2 1223 137.3 1222.8C137.4 1222.6 137.3 1222.3 137.2 1222C137.1 1221.7 137 1221.5 136.8 1221.3C136.6 1221.1 136.4 1220.9 136.2 1220.8C136 1220.7 135.7 1220.6 135.4 1220.5L135.5 1220C135.8 1220 136.1 1220.1 136.4 1220.3C136.7 1220.4 137 1220.6 137.2 1220.9Z" fill="white"/>
<path d="M135.8 1218.8L131.2 1220.6L129.7 1216.8L134.3 1215L134.5 1215.5L130.2 1217.2L130.3 1217L131.5 1220.1L131.3 1220L135.6 1218.3L135.8 1218.8Z" fill="white"/>
<path d="M133.5 1213.1L133.2 1210.2H133.6L134 1213.6L129.1 1214.1L128.7 1210.8H129.1L129.4 1213.6L133.5 1213.1ZM131.3 1213.4L131 1210.8H131.4L131.7 1213.4H131.3Z" fill="white"/>
<path d="M133.7 1209.3L128.8 1208.6L129.1 1206.8C129.2 1206.4 129.3 1206 129.4 1205.8C129.6 1205.5 129.8 1205.3 130.1 1205.2C130.4 1205.1 130.7 1205 131 1205.1C131.3 1205.1 131.6 1205.3 131.9 1205.5C132.1 1205.7 132.3 1205.9 132.4 1206.3C132.5 1206.7 132.5 1207 132.5 1207.4L132.3 1208.9L132.1 1208.6L133.9 1208.8L133.7 1209.3ZM132.1 1208.5L131.8 1208.7L132 1207.2C132.1 1206.7 132 1206.3 131.8 1206.1C131.6 1205.9 131.3 1205.7 131 1205.6C130.6 1205.5 130.3 1205.6 130 1205.9C129.7 1206.2 129.6 1206.5 129.5 1207L129.3 1208.5L129.1 1208.2L132.1 1208.5Z" fill="white"/>
<path d="M134.8 1204L130.5 1202.4L130.7 1202.3L130 1204L129.6 1203.8L131 1200.1L131.4 1200.3L130.8 1202L130.7 1201.8L135 1203.4L134.8 1204Z" fill="white"/>
<path d="M135.9 1201.3L131.9 1198.5L132.2 1198.1L135.5 1200.4L134 1195.5L134.3 1195.1L138.3 1197.9L138 1198.3L134.7 1196L136.2 1200.9L135.9 1201.3Z" fill="white"/>
<path d="M138.4 1196.9L138.3 1196.5C138.6 1196.5 138.9 1196.5 139.1 1196.3C139.4 1196.2 139.6 1196.1 139.8 1195.9C140 1195.7 140.2 1195.5 140.3 1195.3C140.4 1195.1 140.5 1194.9 140.5 1194.7C140.5 1194.5 140.4 1194.3 140.3 1194.1C140.1 1193.9 139.9 1193.8 139.6 1193.8C139.3 1193.8 139 1194 138.7 1194.2L138 1195L137.7 1194.7L138.5 1194C138.8 1193.8 138.9 1193.5 139 1193.3C139.1 1193.1 139 1192.8 138.8 1192.6C138.7 1192.5 138.5 1192.4 138.4 1192.3C138.2 1192.3 138.1 1192.3 137.9 1192.4C137.7 1192.5 137.5 1192.6 137.3 1192.7C137.1 1192.8 137 1193 136.8 1193.2C136.7 1193.4 136.5 1193.6 136.5 1193.9L136.1 1193.7C136.2 1193.4 136.4 1193.1 136.6 1192.8C136.8 1192.5 137 1192.3 137.3 1192.2C137.5 1192 137.8 1191.9 138 1191.8C138.2 1191.7 138.5 1191.7 138.7 1191.8C138.9 1191.8 139.1 1192 139.3 1192.2C139.5 1192.4 139.5 1192.6 139.6 1192.8C139.6 1193 139.6 1193.2 139.5 1193.4C139.4 1193.6 139.2 1193.8 139 1194L138.9 1193.9C139.2 1193.7 139.4 1193.5 139.6 1193.5C139.9 1193.4 140.1 1193.4 140.3 1193.5C140.5 1193.6 140.7 1193.7 140.9 1193.9C141.1 1194.1 141.1 1194.3 141.2 1194.5C141.2 1194.7 141.2 1194.9 141.1 1195.2C141 1195.4 140.9 1195.6 140.7 1195.9C140.5 1196.1 140.3 1196.3 140.1 1196.5C139.9 1196.7 139.6 1196.8 139.4 1196.9C139 1196.9 138.7 1196.9 138.4 1196.9Z" fill="white"/>
<path d="M141.8 1194.7L141.6 1189.3L142.1 1189.1L146.3 1192.5L145.8 1192.7L141.9 1189.5L142.1 1189.4L142.3 1194.4L141.8 1194.7ZM142.1 1193.2V1192.8L144.7 1191.5L145 1191.8L142.1 1193.2Z" fill="white"/>
<path d="M188.3 1176.3C188.3 1176.6 188.3 1176.8 188.3 1177C188.2 1177.9 188.2 1178.9 188.1 1179.8C188 1181 187.4 1182 186.2 1182.6C186 1182.7 185.7 1182.9 185.4 1183C185.4 1182.7 185.5 1182.4 185.5 1182.2C185.5 1181.4 185.5 1180.7 185.5 1179.9C185.5 1179.4 185.1 1179 184.7 1178.6C183.9 1179.7 183 1180.8 183.1 1182.3C183.2 1183.7 184.1 1184.8 184.8 1185.9C181.6 1186.4 178.7 1185.2 177.5 1182.1C176.9 1180.4 177 1178.7 177.3 1177C177.8 1174.8 179 1172.9 180.4 1171.1C180.8 1172.1 181.1 1173.1 181.6 1174.2C183.4 1170.2 186.5 1167.6 190.3 1165.8C190.4 1167.3 190.5 1168.7 190.7 1170.2C190.9 1171.7 191.4 1173.1 192.1 1174.5C192.8 1172.6 193.9 1171 194.9 1169.5C195.8 1171.9 196.7 1174.4 197.5 1176.8C198 1178.2 198.1 1179.6 197.8 1181C197.4 1183 196.1 1184.4 194.3 1185.2C192.8 1185.9 191.1 1186.2 189.4 1186.6C189.7 1186.1 190 1185.7 190.3 1185.3C190.8 1184.6 191.2 1183.8 191.4 1182.9C191.6 1181.7 191.4 1180.6 190.8 1179.6C189.9 1178.4 189.1 1177.4 188.3 1176.3Z" fill="url(#paint12_linear_4_560)"/>
<path d="M170.3 1169C170.3 1169.1 170.2 1169.1 170.2 1169.2C170.2 1169.2 170.1 1169.3 170.1 1169.4L169.7 1169.1C169.8 1169 169.8 1169 169.8 1168.9C169.9 1168.7 169.9 1168.5 169.8 1168.3C169.7 1168.1 169.5 1167.9 169.3 1167.7C169.1 1167.5 168.7 1167.2 168.2 1166.9L166.4 1165.8L168 1162.9L172.3 1165.3L172 1165.7L168 1163.4H168.2L166.9 1165.7L166.8 1165.5L168.3 1166.4C168.7 1166.7 169.1 1166.9 169.4 1167.1C169.7 1167.3 169.9 1167.5 170.1 1167.7C170.3 1167.9 170.3 1168.1 170.4 1168.3C170.5 1168.6 170.5 1168.8 170.3 1169Z" fill="white"/>
<path d="M173.2 1164.2L169.8 1160.7L170.2 1160.3L173 1163.2L172.4 1158.1L172.7 1157.8L176.1 1161.3L175.7 1161.7L172.9 1158.8L173.5 1163.9L173.2 1164.2Z" fill="white"/>
<path d="M180 1158.9L178 1155.2L175.9 1156.3L176.4 1157.4C176.6 1157.7 176.7 1158.1 176.8 1158.4C176.9 1158.7 177 1159 177.1 1159.3C177.2 1159.6 177.2 1159.8 177.2 1160C177.2 1160.2 177.1 1160.3 177 1160.5L176.4 1160.7C176.6 1160.6 176.7 1160.5 176.7 1160.3C176.7 1160.1 176.7 1159.9 176.7 1159.6C176.6 1159.3 176.5 1159 176.4 1158.7C176.3 1158.4 176.1 1158 175.9 1157.7L175.2 1156.3L178.1 1154.8L180.3 1158.9H180ZM177.1 1161.9L176.4 1160.5L181 1158.1L181.7 1159.5L181.3 1159.7L180.8 1158.7L177 1160.7L177.5 1161.7L177.1 1161.9Z" fill="white"/>
<path d="M182.3 1157.9L185.2 1157.2L185.3 1157.6L181.9 1158.4L180.8 1153.6L184.1 1152.9L184.2 1153.3L181.4 1153.9L182.3 1157.9ZM181.8 1155.7L184.3 1155.1L184.4 1155.5L181.9 1156.1L181.8 1155.7Z" fill="white"/>
<path d="M186.2 1157.6L186.3 1152.7H188.1C188.5 1152.7 188.9 1152.8 189.2 1152.9C189.5 1153 189.7 1153.2 189.9 1153.5C190.1 1153.8 190.1 1154.1 190.1 1154.4C190.1 1154.7 190 1155 189.8 1155.3C189.6 1155.6 189.4 1155.7 189.1 1155.9C188.8 1156 188.4 1156.1 188 1156.1H186.5L186.7 1155.9V1157.7L186.2 1157.6ZM186.8 1155.9L186.6 1155.6H188.1C188.6 1155.6 189 1155.5 189.2 1155.3C189.4 1155.1 189.6 1154.8 189.6 1154.4C189.6 1154 189.5 1153.7 189.2 1153.5C188.9 1153.3 188.6 1153.2 188.1 1153.2H186.6L186.8 1153V1155.9Z" fill="white"/>
<path d="M192.9 1158.5C192.5 1158.4 192.2 1158.2 192 1158C191.7 1157.8 191.5 1157.6 191.4 1157.3C191.3 1157 191.1 1156.7 191.1 1156.4C191.1 1156.1 191.1 1155.7 191.2 1155.4C191.3 1155.1 191.4 1154.8 191.7 1154.5C192 1154.2 192.1 1154 192.4 1153.9C192.7 1153.7 193 1153.7 193.3 1153.6C193.6 1153.5 194 1153.6 194.3 1153.7C194.6 1153.8 194.9 1153.9 195.2 1154.1C195.5 1154.3 195.7 1154.5 195.8 1154.8L195.4 1155C195.3 1154.7 195.1 1154.5 194.9 1154.4C194.7 1154.2 194.5 1154.1 194.2 1154.1C193.9 1154 193.6 1154 193.4 1154C193.2 1154 192.9 1154.1 192.7 1154.2C192.5 1154.3 192.3 1154.5 192.1 1154.7C191.9 1154.9 191.8 1155.2 191.7 1155.4C191.6 1155.7 191.6 1156 191.6 1156.2C191.6 1156.4 191.7 1156.7 191.8 1156.9C191.9 1157.1 192.1 1157.3 192.3 1157.5C192.5 1157.7 192.8 1157.8 193 1157.9C193.3 1158 193.5 1158 193.8 1158C194.1 1158 194.3 1157.9 194.6 1157.7L194.8 1158.1C194.5 1158.3 194.2 1158.4 193.9 1158.4C193.6 1158.4 193.3 1158.6 192.9 1158.5Z" fill="white"/>
<path d="M196.2 1159.8L198.4 1155.8L198.5 1156L196.9 1155.1L197.1 1154.7L200.6 1156.6L200.4 1157L198.8 1156.1L199 1156L196.8 1160L196.2 1159.8Z" fill="white"/>
<path d="M198.6 1161.2L201.9 1157.6L203.4 1159C203.8 1159.3 204 1159.7 204.1 1160.1C204.2 1160.5 204.1 1160.8 203.8 1161.1C203.5 1161.4 203.2 1161.5 202.9 1161.5C202.6 1161.5 202.2 1161.3 201.9 1161H202.1C202.5 1161.4 202.7 1161.7 202.8 1162.1C202.9 1162.5 202.8 1162.8 202.5 1163.1C202.2 1163.4 201.9 1163.6 201.5 1163.5C201.1 1163.5 200.7 1163.3 200.3 1162.9L198.6 1161.2ZM199.3 1161.3L200.5 1162.4C200.8 1162.7 201.1 1162.8 201.4 1162.9C201.7 1162.9 201.9 1162.8 202.1 1162.6C202.3 1162.4 202.4 1162.1 202.3 1161.9C202.2 1161.6 202.1 1161.4 201.8 1161.1L200.6 1160L199.3 1161.3ZM200.8 1159.6L201.9 1160.6C202.2 1160.9 202.4 1161 202.7 1161C203 1161 203.2 1160.9 203.4 1160.7C203.6 1160.5 203.7 1160.2 203.6 1160C203.6 1159.7 203.4 1159.5 203.1 1159.2L202 1158.2L200.8 1159.6Z" fill="white"/>
<path d="M203.3 1166.5C203.1 1166.2 203 1165.9 202.9 1165.5C202.8 1165.2 202.8 1164.8 202.9 1164.5C203 1164.2 203.1 1163.9 203.3 1163.6C203.5 1163.3 203.7 1163.1 204 1162.9C204.3 1162.7 204.6 1162.6 204.9 1162.5C205.2 1162.5 205.5 1162.5 205.9 1162.5C206.2 1162.6 206.5 1162.7 206.8 1162.9C207.1 1163.1 207.3 1163.4 207.5 1163.7C207.7 1164 207.8 1164.3 207.9 1164.7C208 1165 208 1165.4 207.9 1165.7C207.8 1166 207.7 1166.3 207.5 1166.6C207.3 1166.9 207.1 1167.1 206.7 1167.3C206.4 1167.5 206.1 1167.6 205.8 1167.7C205.5 1167.7 205.2 1167.7 204.8 1167.7C204.5 1167.6 204.2 1167.5 203.9 1167.3C203.7 1167.1 203.4 1166.8 203.3 1166.5ZM203.6 1166.3C203.8 1166.6 203.9 1166.8 204.2 1166.9C204.4 1167.1 204.7 1167.2 204.9 1167.2C205.2 1167.3 205.4 1167.3 205.7 1167.2C206 1167.2 206.2 1167.1 206.5 1166.9C206.8 1166.7 207 1166.6 207.1 1166.3C207.2 1166 207.4 1165.9 207.4 1165.6C207.5 1165.3 207.5 1165.1 207.4 1164.8C207.4 1164.5 207.3 1164.3 207.1 1164C206.9 1163.7 206.8 1163.5 206.5 1163.4C206.3 1163.2 206 1163.1 205.8 1163.1C205.5 1163 205.3 1163 205 1163.1C204.7 1163.1 204.5 1163.2 204.2 1163.4C204 1163.6 203.8 1163.7 203.6 1164C203.4 1164.2 203.3 1164.5 203.3 1164.7C203.2 1165 203.2 1165.2 203.3 1165.5C203.4 1165.8 203.5 1166 203.6 1166.3Z" fill="white"/>
<path d="M198.4 1251.1C191.1 1251.1 183.9 1251.1 176.5 1251.1C178.9 1246.6 181.4 1242.2 183.8 1237.7C184.5 1239.1 185.2 1240.3 185.9 1241.7C187.1 1239.4 188.3 1237.2 189.6 1234.9C192.6 1240.3 195.5 1245.7 198.4 1251.1ZM192.8 1242.6C191.8 1240.7 190.7 1238.9 189.7 1236.9C188.5 1239 187.4 1241.1 186.2 1243.3C186.6 1243.2 186.9 1243.1 187.2 1243C187.4 1243.7 187.6 1244.3 187.9 1245C188.6 1244 189.3 1243 190 1242.1C190.6 1242.7 191.1 1243.3 191.6 1243.9C192 1243.4 192.4 1243 192.8 1242.6ZM184.7 1244.1C184.8 1243.9 184.9 1243.7 185 1243.6C185.6 1243 185.5 1242.3 185 1241.7C184.6 1241.1 184.3 1240.4 183.9 1239.7C183.1 1241.1 182.4 1242.4 181.7 1243.7C182 1243.9 182.2 1244.2 182.5 1244.4C182.9 1243.9 183.3 1243.5 183.7 1243C184 1243.4 184.3 1243.7 184.7 1244.1Z" fill="url(#paint13_linear_4_560)"/>
<path d="M165.9 1253.6L170.3 1251.4L170.5 1251.8L168.1 1255.5L168 1255.3L172.4 1255.6L172.6 1256L168.2 1258.2L168 1257.8L171.7 1255.9L171.8 1256L167.8 1255.8L167.7 1255.6L169.9 1252.2L170 1252.3L166.3 1254.2L165.9 1253.6Z" fill="white"/>
<path d="M169.3 1259.7L174.4 1257.9L174.8 1258.3L172.8 1263.3L172.4 1262.9L174.3 1258.2L174.4 1258.4L169.7 1260.1L169.3 1259.7ZM170.9 1259.4L171.3 1259.2L173.3 1261.2L173.1 1261.6L170.9 1259.4Z" fill="white"/>
<path d="M176 1265.4C175.7 1265.2 175.4 1265 175.2 1264.7C175 1264.4 174.9 1264.1 174.8 1263.8C174.7 1263.5 174.7 1263.2 174.8 1262.8C174.9 1262.4 175 1262.2 175.2 1261.9C175.4 1261.6 175.6 1261.3 175.9 1261.2C176.2 1261 176.5 1260.9 176.8 1260.8C177.1 1260.7 177.4 1260.7 177.8 1260.8C178.1 1260.9 178.5 1261 178.8 1261.2C179.1 1261.4 179.4 1261.6 179.6 1261.9C179.8 1262.2 179.9 1262.5 180 1262.8L179.5 1262.9C179.4 1262.6 179.3 1262.4 179.2 1262.2C179 1262 178.8 1261.8 178.6 1261.7C178.3 1261.5 178.1 1261.4 177.8 1261.4C177.5 1261.4 177.3 1261.4 177 1261.4C176.7 1261.5 176.5 1261.6 176.3 1261.7C176.1 1261.9 175.9 1262.1 175.7 1262.3C175.5 1262.6 175.5 1262.8 175.4 1263.1C175.4 1263.4 175.4 1263.6 175.4 1263.9C175.5 1264.2 175.6 1264.4 175.7 1264.6C175.8 1264.8 176.1 1265 176.3 1265.2C176.5 1265.3 176.8 1265.4 177 1265.5C177.3 1265.5 177.5 1265.5 177.8 1265.5L177.9 1266C177.6 1266.1 177.3 1266.1 176.9 1266C176.6 1265.7 176.3 1265.6 176 1265.4Z" fill="white"/>
<path d="M180 1267.2L181.4 1262.8L181.5 1263L179.7 1262.4L179.8 1262L183.6 1263.2L183.5 1263.6L181.7 1263L181.9 1262.9L180.5 1267.3L180 1267.2Z" fill="white"/>
<path d="M184.3 1267.8L187.2 1268.1V1268.5L183.8 1268.2L184.3 1263.3L187.6 1263.6V1264L184.8 1263.7L184.3 1267.8ZM184.5 1265.5L187.1 1265.8V1266.2L184.5 1265.9V1265.5Z" fill="white"/>
<path d="M189.1 1268.5L188.4 1263.6L190.2 1263.3C190.6 1263.2 191 1263.3 191.3 1263.3C191.6 1263.3 191.9 1263.5 192.1 1263.8C192.3 1264 192.4 1264.3 192.5 1264.7C192.5 1265 192.5 1265.3 192.4 1265.6C192.3 1265.9 192.1 1266.1 191.8 1266.3C191.5 1266.5 191.2 1266.6 190.8 1266.7L189.3 1266.9L189.5 1266.6L189.8 1268.4L189.1 1268.5ZM189.4 1266.7L189.1 1266.5L190.6 1266.3C191.1 1266.2 191.4 1266.1 191.7 1265.8C191.9 1265.6 192 1265.2 192 1264.9C191.9 1264.5 191.8 1264.2 191.5 1264.1C191.2 1263.9 190.8 1263.9 190.3 1263.9L188.8 1264.1L189 1263.8L189.4 1266.7Z" fill="white"/>
<path d="M196.7 1266.6C196.4 1266.7 196 1266.8 195.7 1266.8C195.4 1266.8 195 1266.7 194.8 1266.6C194.5 1266.5 194.2 1266.3 194 1266.1C193.8 1265.9 193.6 1265.6 193.4 1265.3C193.3 1265 193.2 1264.6 193.2 1264.3C193.2 1264 193.3 1263.7 193.4 1263.4C193.5 1263.1 193.7 1262.8 194 1262.6C194.2 1262.4 194.5 1262.2 194.9 1262C195.2 1261.9 195.6 1261.8 195.9 1261.8C196.2 1261.8 196.5 1261.9 196.8 1262L196.6 1262.4C196.3 1262.3 196.1 1262.2 195.8 1262.2C195.5 1262.2 195.3 1262.3 195 1262.4C194.7 1262.5 194.5 1262.7 194.3 1262.9C194.1 1263.1 194 1263.3 193.9 1263.5C193.8 1263.7 193.7 1264 193.7 1264.3C193.7 1264.6 193.8 1264.8 193.9 1265.1C194 1265.4 194.2 1265.6 194.4 1265.8C194.6 1266 194.8 1266.1 195.1 1266.2C195.3 1266.3 195.6 1266.3 195.9 1266.3C196.2 1266.3 196.4 1266.2 196.7 1266.1C197 1266 197.2 1265.8 197.4 1265.7C197.6 1265.5 197.7 1265.3 197.8 1265L198.2 1265.2C198.1 1265.5 197.9 1265.8 197.7 1266C197.3 1266.2 197.1 1266.4 196.7 1266.6Z" fill="white"/>
<path d="M200.6 1264.3L197.9 1260.6H198.1L196.6 1261.7L196.3 1261.3L199.5 1259L199.8 1259.4L198.3 1260.5V1260.3L201 1264L200.6 1264.3Z" fill="white"/>
<path d="M203.6 1261.9L199.9 1258.7L201.2 1257.2C201.5 1256.8 201.9 1256.6 202.2 1256.5C202.6 1256.4 202.9 1256.5 203.2 1256.8C203.5 1257.1 203.6 1257.4 203.6 1257.7C203.6 1258 203.4 1258.4 203.1 1258.7L203 1258.5C203.4 1258.1 203.7 1257.8 204.1 1257.8C204.4 1257.7 204.8 1257.8 205.1 1258.1C205.4 1258.4 205.6 1258.7 205.5 1259.1C205.4 1259.5 205.3 1259.9 204.9 1260.3L203.6 1261.9ZM201.9 1259.8L202.9 1258.7C203.1 1258.4 203.3 1258.1 203.3 1257.9C203.3 1257.6 203.2 1257.4 203 1257.2C202.8 1257 202.5 1256.9 202.3 1257C202.1 1257.1 201.8 1257.2 201.6 1257.5L200.6 1258.6L201.9 1259.8ZM203.6 1261.3L204.7 1260C205 1259.7 205.1 1259.4 205.1 1259.1C205.1 1258.8 205 1258.6 204.8 1258.4C204.6 1258.2 204.3 1258.1 204.1 1258.2C203.8 1258.3 203.6 1258.5 203.3 1258.8L202.2 1260.1L203.6 1261.3Z" fill="white"/>
<path d="M208.3 1255.2C208.1 1255.5 207.9 1255.8 207.7 1256.1C207.5 1256.4 207.2 1256.5 206.9 1256.6C206.6 1256.7 206.3 1256.8 206 1256.8C205.7 1256.8 205.3 1256.7 205 1256.6C204.7 1256.5 204.4 1256.3 204.2 1256C204 1255.7 203.8 1255.5 203.7 1255.2C203.6 1254.9 203.5 1254.6 203.6 1254.2C203.6 1253.9 203.7 1253.5 203.9 1253.2C204.1 1252.9 204.3 1252.6 204.5 1252.3C204.7 1252.1 205 1251.9 205.3 1251.8C205.6 1251.7 205.9 1251.6 206.2 1251.6C206.5 1251.6 206.9 1251.7 207.2 1251.8C207.5 1251.9 207.8 1252.1 208 1252.4C208.2 1252.6 208.4 1252.9 208.5 1253.2C208.6 1253.5 208.7 1253.8 208.6 1254.2C208.6 1254.5 208.5 1254.8 208.3 1255.2ZM207.9 1255C208 1254.7 208.1 1254.5 208.1 1254.2C208.1 1253.9 208.1 1253.7 208 1253.4C207.9 1253.2 207.8 1252.9 207.6 1252.7C207.4 1252.5 207.2 1252.3 206.9 1252.2C206.6 1252.1 206.4 1252 206.1 1252C205.8 1252 205.6 1252 205.3 1252.1C205 1252.2 204.8 1252.3 204.6 1252.5C204.4 1252.7 204.2 1252.9 204.1 1253.2C204 1253.5 203.9 1253.7 203.9 1254C203.9 1254.3 203.9 1254.5 204 1254.8C204.1 1255 204.2 1255.3 204.4 1255.5C204.6 1255.7 204.8 1255.9 205.1 1256C205.4 1256.1 205.6 1256.2 205.9 1256.2C206.2 1256.2 206.4 1256.2 206.7 1256.1C207 1256 207.2 1255.9 207.4 1255.7C207.6 1255.5 207.8 1255.2 207.9 1255Z" fill="white"/>
<path d="M226.8 1206.2C227.3 1205.5 227.1 1204.5 226.3 1203.9C225.5 1203.2 224.5 1203.2 223.5 1203.3C221.5 1203.5 219.9 1204.4 218.8 1206.2C218.2 1207.1 217.7 1208.1 217.2 1209C216.8 1209.7 216.3 1210.5 215.8 1211.2C214.8 1212.5 213.4 1213.1 211.8 1213.1C211.3 1213.1 211 1212.8 211 1212.4C211 1212 211.3 1211.7 211.8 1211.7C213.1 1211.7 214.2 1211.1 214.9 1210.1C215.5 1209.3 215.9 1208.4 216.4 1207.6C217 1206.6 217.6 1205.5 218.3 1204.6C220.2 1202.3 222.7 1201.6 225.6 1202.2C227.4 1202.6 228.5 1204 228.4 1205.7C228.3 1206.8 227.9 1207.7 226.9 1208.2C226.2 1208.6 225.8 1208.3 225.6 1207.6C225.5 1207.2 225.2 1207.1 224.9 1207C224.2 1206.9 223.6 1207.2 223.3 1207.9C222.1 1210 223.4 1212.8 225.8 1213.3C226.7 1213.5 227.5 1213.3 228.3 1212.9C229 1212.6 229.8 1212.3 230.6 1212C230.8 1211.9 231.1 1211.9 231.3 1212C231.7 1212 231.9 1212.3 231.9 1212.7C231.9 1213.1 231.7 1213.4 231.3 1213.4C230.2 1213.4 229.4 1213.9 228.5 1214.4C226.6 1215.3 224.2 1214.8 222.8 1213.3C221.4 1211.8 221 1209.3 221.9 1207.5C222.6 1206.1 224 1205.4 225.4 1205.9C226 1205.6 226.4 1205.9 226.8 1206.2ZM226.4 1218C227.3 1218 228.1 1217.8 228.9 1217.4C229.7 1217 230.5 1216.6 231.4 1216.6C231.8 1216.6 232 1216.2 232 1215.9C232 1215.5 231.7 1215.2 231.3 1215.2C231.1 1215.2 230.8 1215.2 230.6 1215.2C229.7 1215.5 228.9 1215.8 228.1 1216.1C226.9 1216.6 225.8 1216.6 224.7 1216.1C224.3 1215.9 223.9 1215.7 223.5 1215.5C222.2 1214.9 220.9 1214.9 219.6 1215.5C219.2 1215.7 218.8 1215.9 218.3 1216.1C217.2 1216.7 216 1216.7 214.9 1216.1C214.5 1215.9 214.1 1215.7 213.7 1215.5C213 1215.3 212.4 1215.2 211.7 1215.1C211.3 1215.1 211 1215.4 211 1215.8C211 1216.2 211.3 1216.5 211.6 1216.5C212.5 1216.5 213.3 1216.9 214 1217.3C215.1 1217.9 216.3 1218.2 217.5 1217.9C218.3 1217.7 219 1217.4 219.7 1217C220.8 1216.5 222 1216.4 223.1 1217C223.5 1217.2 223.8 1217.4 224.2 1217.5C224.9 1217.7 225.6 1217.9 226.3 1218.1C226.4 1218.1 226.4 1218 226.4 1218ZM226.4 1221.5C227.3 1221.5 228.2 1221.2 229 1220.8C229.8 1220.4 230.5 1220.1 231.4 1220.1C231.8 1220.1 232.1 1219.8 232.1 1219.4C232.1 1219 231.8 1218.7 231.4 1218.7C231.2 1218.7 230.9 1218.7 230.7 1218.7C229.9 1219 229 1219.2 228.2 1219.6C227 1220.2 225.8 1220.2 224.6 1219.6C224.3 1219.4 224 1219.3 223.7 1219.1C222.3 1218.4 220.8 1218.4 219.4 1219.1C219.1 1219.2 218.8 1219.4 218.5 1219.6C217.3 1220.2 216.1 1220.2 214.9 1219.6C214.5 1219.4 214.2 1219.2 213.7 1219.1C213.1 1218.9 212.4 1218.8 211.7 1218.7C211.3 1218.7 211 1219 211 1219.4C211 1219.8 211.3 1220.1 211.6 1220.1C212.5 1220.1 213.3 1220.5 214 1220.9C215.1 1221.5 216.3 1221.8 217.5 1221.5C218.2 1221.3 219 1221 219.7 1220.7C220.9 1220.1 222.1 1220.1 223.3 1220.7C223.6 1220.9 223.9 1221 224.2 1221.1C224.9 1221.3 225.6 1221.5 226.3 1221.7C226.4 1221.6 226.4 1221.5 226.4 1221.5Z" fill="url(#paint14_linear_4_560)"/>
<path d="M219.6 1193.3L219.5 1188.4H220L220.1 1193.3H219.6ZM219.9 1191V1190.5H221.4V1191H219.9ZM221.5 1190.9L221 1190.8L222.8 1188.3H223.4L221.5 1190.9ZM223 1193.2L221.1 1190.8L221.5 1190.5L223.6 1193.2H223Z" fill="white"/>
<path d="M226.1 1193.9C225.7 1193.8 225.4 1193.7 225.2 1193.5C225 1193.3 224.7 1193.1 224.5 1192.8C224.3 1192.5 224.2 1192.2 224.2 1191.9C224.2 1191.6 224.2 1191.2 224.3 1190.9C224.4 1190.6 224.5 1190.2 224.7 1190C224.9 1189.7 225.1 1189.5 225.4 1189.4C225.7 1189.2 226 1189.1 226.3 1189.1C226.6 1189.1 227 1189.1 227.3 1189.2C227.7 1189.3 228 1189.4 228.2 1189.6C228.5 1189.8 228.7 1190 228.9 1190.3C229.1 1190.6 229.2 1190.9 229.2 1191.2C229.2 1191.5 229.2 1191.9 229.1 1192.2C229 1192.5 228.9 1192.9 228.7 1193.1C228.5 1193.4 228.3 1193.6 228 1193.7C227.7 1193.8 227.4 1194 227.1 1194C226.8 1194 226.5 1194 226.1 1193.9ZM226.2 1193.4C226.5 1193.5 226.8 1193.5 227 1193.5C227.3 1193.5 227.5 1193.4 227.7 1193.2C227.9 1193.1 228.1 1192.9 228.3 1192.7C228.5 1192.5 228.6 1192.2 228.7 1192C228.8 1191.7 228.8 1191.4 228.8 1191.2C228.8 1190.9 228.7 1190.7 228.5 1190.5C228.4 1190.3 228.2 1190.1 228 1189.9C227.8 1189.7 227.5 1189.6 227.2 1189.6C226.9 1189.6 226.6 1189.5 226.4 1189.5C226.1 1189.5 225.9 1189.6 225.7 1189.7C225.5 1189.8 225.3 1190 225.1 1190.2C224.9 1190.4 224.8 1190.7 224.7 1190.9C224.6 1191.2 224.6 1191.5 224.7 1191.7C224.7 1192 224.8 1192.2 225 1192.4C225.1 1192.6 225.3 1192.8 225.5 1193C225.7 1193.2 225.9 1193.4 226.2 1193.4Z" fill="white"/>
<path d="M229.4 1194.8L232.1 1190.7L232.5 1190.9L232.3 1195.3L232.1 1195.2L236 1193.2L236.4 1193.4L233.7 1197.5L233.3 1197.2L235.6 1193.7L235.7 1193.8L232.1 1195.6L231.9 1195.5L232.1 1191.4L232.2 1191.5L229.9 1195L229.4 1194.8Z" fill="white"/>
<path d="M234.6 1198.5L238.5 1195.5L238.8 1195.8L237.1 1199.9L237 1199.7L241.4 1199.1L241.7 1199.4L237.8 1202.4L237.5 1202L240.8 1199.5L240.9 1199.6L236.9 1200.1L236.8 1199.9L238.3 1196.1L238.4 1196.2L235.1 1198.7L234.6 1198.5Z" fill="white"/>
<path d="M238.7 1203.5C238.7 1203.8 238.8 1204 238.9 1204.2C239 1204.4 239.2 1204.5 239.6 1204.6L240 1204.7H240.1L244.1 1205.2L244.3 1205.7L239.7 1205.1C239.4 1205.1 239.1 1205 238.9 1204.8C238.7 1204.7 238.6 1204.5 238.5 1204.3C238.4 1204.1 238.4 1203.9 238.4 1203.6L238.7 1203.5ZM239.6 1204.8L242.6 1201.4L242.8 1201.9L240.1 1204.9L239.6 1204.8Z" fill="white"/>
<path d="M239.7 1208.4V1207.9L244.6 1207.4V1207.9L239.7 1208.4ZM244.9 1211V1211.5L240 1212L239.9 1211.5L244.9 1211ZM242.3 1211.3L242 1208.1H242.5L242.8 1211.3H242.3Z" fill="white"/>
<path d="M240 1213.3L244.8 1214.2L244.7 1214.7L240.7 1213.9L244.1 1217.8L244 1218.3L239.2 1217.4L239.3 1216.9L243.3 1217.7L239.9 1213.8L240 1213.3Z" fill="white"/>
<path d="M237.2 1221.6L240.2 1221V1221.5L236.9 1222.1L237.2 1221.6ZM238.7 1218.6L243.1 1220.8L242.9 1221.3L238.5 1219.1L238.7 1218.6ZM240.6 1219.9L241 1220.1L240.3 1221.5L239.9 1221.3L240.6 1219.9ZM240 1221.4L240.3 1221L241.6 1223.7L241.3 1224.2L240 1221.4Z" fill="white"/>
<path d="M237.1 1221.9L239.3 1226.8L239 1227.2L233.8 1225.7L234.2 1225.3L239 1226.7L238.9 1226.9L236.8 1222.3L237.1 1221.9ZM237.5 1223.4L237.7 1223.8L235.8 1226L235.4 1225.8L237.5 1223.4Z" fill="white"/>
<path d="M229.1 1227.4L229.8 1228.5H229.6L230.4 1228L230.6 1228.4L229.5 1229.1L228.6 1227.8L229.1 1227.4ZM233.3 1226.1L236 1230.2L235.6 1230.5L233.2 1226.8L230.7 1228.4L233.1 1232.1L232.7 1232.4L230 1228.3L233.3 1226.1Z" fill="white"/>
<path d="M228.7 1228.9L230.1 1233.6L229.6 1233.7L228.5 1229.8L226.6 1234.6L226.2 1234.7L224.8 1230L225.3 1229.9L226.4 1233.8L228.3 1229L228.7 1228.9Z" fill="white"/>
<path d="M220.4 1230.2V1231.8L220.3 1231.7H221.9C222.3 1231.7 222.6 1231.8 222.9 1231.9C223.2 1232 223.4 1232.2 223.5 1232.5C223.7 1232.7 223.7 1233 223.7 1233.4C223.7 1233.8 223.6 1234.1 223.5 1234.4C223.4 1234.7 223.1 1234.9 222.8 1235C222.5 1235.1 222.2 1235.2 221.8 1235.2H219.9L219.8 1230.3L220.4 1230.2ZM220.4 1232V1234.8L220.3 1234.7H221.8C222.3 1234.7 222.6 1234.6 222.9 1234.4C223.1 1234.2 223.3 1233.9 223.3 1233.4C223.3 1233 223.2 1232.7 222.9 1232.5C222.7 1232.3 222.3 1232.2 221.9 1232.2H220.3L220.4 1232ZM223.7 1230.2L222.5 1231.9H222L223.2 1230.2H223.7Z" fill="white"/>
<path d="M180 1210.2H193.7" stroke="white" stroke-width="0.5" stroke-miterlimit="10"/>
<path d="M181.8 1210.2L184 1206.6L183.9 1206.5L178 1208.8C176 1209.3 173.9 1209.7 171.9 1210.2C173.9 1210.7 176 1211.1 178 1211.6L183.9 1213.9L184 1213.8L181.8 1210.2Z" fill="white"/>
<path d="M191.9 1210.2L189.7 1206.6L189.8 1206.5L195.7 1208.8C197.7 1209.3 199.8 1209.7 201.8 1210.2C199.8 1210.7 197.7 1211.1 195.7 1211.6L189.8 1213.9L189.7 1213.8L191.9 1210.2Z" fill="white"/>
<path d="M186.9 1217V1203.3" stroke="white" stroke-width="0.5" stroke-miterlimit="10"/>
<path d="M186.9 1215.2L183.3 1213L183.2 1213.1L185.5 1219C186 1221 186.4 1223.1 186.9 1225.1C187.4 1223.1 187.8 1221 188.3 1219L190.6 1213.1L190.5 1213L186.9 1215.2Z" fill="white"/>
<path d="M186.9 1205.1L183.3 1207.3L183.2 1207.2L185.5 1201.3C186 1199.3 186.4 1197.2 186.9 1195.2C187.4 1197.2 187.8 1199.3 188.3 1201.3L190.6 1207.2L190.5 1207.3L186.9 1205.1Z" fill="white"/>
</g>
<mask id="mask1_4_560" style="mask-type:luminance" maskUnits="userSpaceOnUse" x="0" y="0" width="375" height="812">
<path d="M375 0H0V812H375V0Z" fill="white"/>
</mask>
<g mask="url(#mask1_4_560)">
<path d="M375 0H0V812H375V0Z" fill="url(#paint15_radial_4_560)"/>
<path d="M350 369.1L293.7 312.8L237.4 256.5C224.1 243.2 206.5 235.9 187.7 235.9C168.9 235.9 151.3 243.2 138 256.5L75.1999 319.3L24.9999 369.4C-2.40005 396.8 -2.40005 441.4 24.9999 468.8L74.7999 518.6L137.6 581.4C150.9 594.7 168.5 602 187.3 602C206.1 602 223.7 594.7 237 581.4L293.5 524.9L350 468.4C377.3 441.1 377.3 396.5 350 369.1Z" fill="url(#paint16_radial_4_560)"/>
<path opacity="0.3" d="M187.6 409.8L95.3999 317.6L148.2 264.8C170 243 205.2 243 227 264.8L279.8 317.6L187.6 409.8Z" fill="url(#paint17_linear_4_560)"/>
<path opacity="0.3" d="M196.6 418.8L288.8 511L341.6 458.2C363.4 436.4 363.4 401.2 341.6 379.4L288.8 326.6L196.6 418.8Z" fill="url(#paint18_linear_4_560)"/>
<path opacity="0.3" d="M187.4 428.1L279.6 520.3L226.8 573C205 594.8 169.8 594.8 148 573L95.2 520.2L187.4 428.1Z" fill="url(#paint19_linear_4_560)"/>
<path opacity="0.3" d="M178.4 419.1L86.2 326.9L33.4 379.7C11.6 401.5 11.6 436.7 33.4 458.5L86.2 511.3L178.4 419.1Z" fill="url(#paint20_linear_4_560)"/>
<path d="M163.7 476.1L130.4 442.8C117.3 429.7 117.3 408.3 130.4 395.2L163.7 361.9C176.8 348.8 198.2 348.8 211.3 361.9L244.6 395.2C257.7 408.3 257.7 429.7 244.6 442.8L211.3 476.1C198.2 489.2 176.8 489.2 163.7 476.1Z" fill="url(#paint21_radial_4_560)"/>
<path d="M187.6 409.8L223.4 374L211.2 361.8C198.1 348.7 176.7 348.7 163.6 361.8L151.6 373.8L187.6 409.8Z" fill="url(#paint22_linear_4_560)"/>
<path d="M232.6 454.8L244.6 442.8C257.7 429.7 257.7 408.3 244.6 395.2L232.5 383L196.7 418.8L232.6 454.8Z" fill="url(#paint23_linear_4_560)"/>
<path d="M187.4 428.1L151.6 463.9L163.8 476.1C176.9 489.2 198.3 489.2 211.4 476.1L223.4 464.1L187.4 428.1Z" fill="url(#paint24_linear_4_560)"/>
<path d="M142.4 383.1L130.4 395.1C117.3 408.2 117.3 429.6 130.4 442.7L142.6 454.9L178.4 419.1L142.4 383.1Z" fill="url(#paint25_linear_4_560)"/>
<path d="M143.5 417.9H158.6C158.9 417.9 159.1 417.9 159.4 417.8C160.1 417.7 160.5 417.2 160.6 416.5C160.7 415.8 160.3 415.2 159.6 414.9C158.9 414.7 158.2 414.9 157.9 415.4C157.8 415.5 157.8 415.6 157.7 415.8C157.7 415.9 157.6 415.9 157.6 416C157.3 416.5 156.8 416.7 156.3 416.5C155.8 416.3 155.5 415.7 155.7 415.2C156.1 413.8 157.1 413 158.6 412.7C160.2 412.4 162.1 413.1 162.7 415.2C163 416.4 162.8 417.7 162.1 418.6C161.4 419.5 160.4 420 159.1 420C157.3 420 155.5 420 153.6 420H149.9C147.8 420 145.7 420 143.6 420C143.3 420 143.1 420 142.9 419.9C142.3 419.8 142 419.4 142 418.8C142 418.3 142.4 417.9 142.9 417.8C143 417.9 143.2 417.9 143.5 417.9ZM154.4 429.3C156.5 429 157.7 427.3 157.5 425.2C157.3 423.5 155.8 422.1 154 422C153 421.9 151.9 422 150.9 422C150.5 422 150.2 422 149.8 422H148.2C147.2 422 146.1 422 145.1 422C144.5 422 144.2 422.2 144 422.6C143.8 422.9 143.9 423.3 144.1 423.6C144.3 423.9 144.7 424.1 145.1 424.1C146.5 424.1 148 424.1 149.4 424.1C150.8 424.1 152.1 424.1 153.5 424.1C153.8 424.1 154.1 424.1 154.4 424.2C155 424.4 155.4 424.9 155.4 425.6C155.4 426.3 155 426.8 154.4 427.1C153.8 427.3 153.1 427.1 152.7 426.6C152.6 426.4 152.5 426.3 152.4 426.1C152.3 426 152.2 425.8 152.2 425.7C152 425.4 151.8 425.3 151.5 425.3C151.4 425.3 151.3 425.3 151.2 425.3C150.9 425.4 150.6 425.5 150.5 425.8C150.3 426.1 150.3 426.4 150.4 426.8C150.9 428.6 152.7 429.6 154.4 429.3ZM144.2 413.7C143.9 413.7 143.7 413.7 143.5 413.8C143 413.9 142.7 414.4 142.8 415C142.9 415.5 143.3 415.8 144 415.8C144.7 415.8 145.3 415.8 146 415.8C146.3 415.8 146.6 415.8 146.9 415.8H147.7C148 415.8 148.2 415.8 148.5 415.8C148.8 415.8 149.1 415.8 149.5 415.8C150.7 415.8 151.7 415.4 152.3 414.7C153 414 153.3 413 153.2 411.8C153.1 410.1 151.9 408.8 150.2 408.6C148.5 408.4 146.7 409.4 146.2 410.9C146.2 411 146.1 411.2 146.1 411.3C146 411.8 146.4 412.3 146.8 412.4C147.3 412.6 147.7 412.5 148 412C148.1 411.9 148.1 411.8 148.2 411.7C148.3 411.6 148.3 411.5 148.4 411.4C148.8 410.8 149.5 410.6 150.2 410.8C150.8 411 151.2 411.6 151.2 412.3C151.2 413 150.8 413.6 150.1 413.7C149.7 413.8 149.4 413.8 148.9 413.8C148.1 413.8 147.2 413.8 146.4 413.8C145.6 413.7 144.9 413.7 144.2 413.7Z" fill="url(#paint26_linear_4_560)"/>
<path d="M142.7 440.4C142.4 440.3 142.1 440.1 141.9 439.8C141.7 439.6 141.5 439.3 141.4 439C141.3 438.7 141.2 438.4 141.3 438.1C141.4 437.8 141.4 437.4 141.6 437.1C141.8 436.8 141.9 436.5 142.2 436.3C142.4 436.1 142.7 435.9 143 435.8C143.3 435.7 143.6 435.6 143.9 435.7C144.2 435.7 144.5 435.8 144.9 435.9C145.2 436.1 145.5 436.3 145.8 436.5C146 436.7 146.2 437 146.3 437.3L145.9 437.5C145.8 437.2 145.7 437 145.5 436.8C145.3 436.6 145.1 436.5 144.8 436.3C144.5 436.2 144.3 436.1 144 436.1C143.7 436.1 143.5 436.1 143.3 436.2C143.1 436.3 142.9 436.4 142.7 436.6C142.5 436.8 142.4 437 142.2 437.3C142.1 437.6 142 437.8 142 438.1C142 438.4 142 438.6 142.1 438.9C142.2 439.1 142.3 439.4 142.5 439.5C142.7 439.6 142.9 439.8 143.1 440C143.4 440.1 143.6 440.2 143.9 440.2C144.2 440.2 144.4 440.2 144.7 440.1L144.9 440.5C144.6 440.6 144.3 440.7 143.9 440.6C143.4 440.6 143.1 440.5 142.7 440.4ZM144.4 438.2L144.2 438.6L141.7 437.5L141.9 437.1L144.4 438.2Z" fill="white"/>
<path d="M138.8 434.9L139.1 435.3L136.2 436L135.8 435.6L138.8 434.9ZM141.8 434.3L138.7 438.1L138.3 437.8L141.4 434L141.8 434.3ZM139.2 432.2L139.1 435.3L138.6 435.2L138.7 431.8L139.2 432.2ZM140.1 435.8L139.8 436.2L138.6 435.2L138.9 434.8L140.1 435.8Z" fill="white"/>
<path d="M137.2 429.6C137.4 429.9 137.6 430.2 137.7 430.5C137.8 430.8 137.8 431.1 137.8 431.5C137.8 431.8 137.7 432.1 137.5 432.4C137.3 432.7 137.1 432.9 136.8 433.2C136.5 433.4 136.2 433.6 135.9 433.6C135.6 433.7 135.3 433.7 134.9 433.6C134.6 433.6 134.3 433.4 134 433.3C133.7 433.1 133.5 432.9 133.2 432.6C133 432.3 132.8 432 132.7 431.7C132.6 431.4 132.6 431.1 132.7 430.7L133.2 430.8C133.2 431.1 133.2 431.4 133.2 431.6C133.3 431.8 133.4 432.1 133.6 432.3C133.8 432.5 134 432.7 134.2 432.9C134.4 433 134.7 433.1 134.9 433.2C135.2 433.2 135.4 433.2 135.7 433.2C136 433.2 136.2 433 136.4 432.8C136.6 432.6 136.8 432.4 137 432.2C137.1 432 137.2 431.7 137.3 431.5C137.3 431.2 137.3 431 137.2 430.7C137.1 430.4 137 430.2 136.8 430C136.6 429.8 136.4 429.6 136.2 429.5C136 429.4 135.7 429.3 135.4 429.2L135.5 428.7C135.8 428.7 136.1 428.8 136.4 429C136.7 429.1 137 429.3 137.2 429.6Z" fill="white"/>
<path d="M135.8 427.5L131.2 429.3L129.7 425.5L134.3 423.7L134.5 424.2L130.2 425.9L130.3 425.7L131.5 428.8L131.3 428.7L135.6 427L135.8 427.5Z" fill="white"/>
<path d="M133.5 421.9L133.2 419H133.6L134 422.4L129.1 422.9L128.7 419.6H129.1L129.4 422.4L133.5 421.9ZM131.3 422.2L131 419.6H131.4L131.7 422.2H131.3Z" fill="white"/>
<path d="M133.7 418L128.8 417.3L129.1 415.5C129.2 415.1 129.3 414.7 129.4 414.5C129.6 414.2 129.8 414 130.1 413.9C130.4 413.8 130.7 413.7 131 413.8C131.3 413.8 131.6 414 131.9 414.2C132.1 414.4 132.3 414.6 132.4 415C132.5 415.4 132.5 415.7 132.5 416.1L132.3 417.6L132.1 417.3L133.9 417.5L133.7 418ZM132.1 417.3L131.8 417.5L132 416C132.1 415.5 132 415.1 131.8 414.9C131.6 414.7 131.3 414.5 131 414.4C130.6 414.3 130.3 414.4 130 414.7C129.7 415 129.6 415.3 129.5 415.8L129.3 417.3L129.1 417L132.1 417.3Z" fill="white"/>
<path d="M134.8 412.7L130.5 411.1L130.7 411L130 412.7L129.6 412.5L131 408.8L131.4 409L130.8 410.7L130.7 410.5L135 412.1L134.8 412.7Z" fill="white"/>
<path d="M135.9 410.1L131.9 407.3L132.2 406.9L135.5 409.2L134 404.3L134.3 403.9L138.3 406.7L138 407.1L134.7 404.8L136.2 409.7L135.9 410.1Z" fill="white"/>
<path d="M138.4 405.7L138.3 405.3C138.6 405.3 138.9 405.3 139.1 405.1C139.3 404.9 139.6 404.9 139.8 404.7C140 404.5 140.2 404.3 140.3 404.1C140.4 403.9 140.5 403.7 140.5 403.5C140.5 403.3 140.4 403.1 140.3 402.9C140.1 402.7 139.9 402.6 139.6 402.6C139.3 402.6 139 402.8 138.7 403L137.9 403.7L137.6 403.4L138.4 402.7C138.7 402.5 138.8 402.2 138.9 402C139 401.8 138.9 401.5 138.7 401.3C138.6 401.2 138.4 401.1 138.3 401C138.2 400.9 138 401 137.8 401.1C137.6 401.2 137.4 401.3 137.2 401.4C137 401.5 136.9 401.7 136.7 401.9C136.6 402.1 136.4 402.4 136.4 402.6L136 402.4C136.1 402.1 136.3 401.8 136.5 401.5C136.7 401.2 136.9 401 137.2 400.9C137.4 400.7 137.7 400.6 137.9 400.5C138.2 400.4 138.4 400.4 138.6 400.5C138.8 400.5 139 400.7 139.2 400.9C139.4 401.1 139.4 401.3 139.5 401.5C139.6 401.7 139.5 401.9 139.4 402.1C139.3 402.3 139.1 402.5 138.9 402.7L138.8 402.6C139.1 402.4 139.3 402.2 139.5 402.2C139.7 402.2 140 402.1 140.2 402.2C140.4 402.3 140.6 402.4 140.8 402.6C141 402.8 141 403 141.1 403.2C141.1 403.4 141.1 403.6 141 403.9C140.9 404.1 140.8 404.3 140.6 404.6C140.4 404.8 140.2 405 140 405.2C139.8 405.4 139.5 405.5 139.3 405.6C139 405.6 138.7 405.7 138.4 405.7Z" fill="white"/>
<path d="M141.8 403.5L141.6 398.1L142.1 397.9L146.3 401.3L145.8 401.5L141.9 398.3L142.1 398.2L142.3 403.2L141.8 403.5ZM142.1 401.9V401.5L144.7 400.2L145 400.5L142.1 401.9Z" fill="white"/>
<path d="M188.3 385C188.3 385.3 188.3 385.5 188.3 385.7C188.2 386.6 188.2 387.6 188.1 388.5C188 389.7 187.4 390.7 186.2 391.3C186 391.4 185.7 391.6 185.4 391.7C185.4 391.4 185.5 391.1 185.5 390.9C185.5 390.1 185.5 389.4 185.5 388.6C185.5 388.1 185.1 387.7 184.7 387.3C183.9 388.4 183 389.5 183.1 391C183.2 392.4 184.1 393.5 184.8 394.6C181.6 395.1 178.7 393.9 177.5 390.8C176.9 389.1 177 387.4 177.3 385.7C177.8 383.5 179 381.6 180.4 379.8C180.8 380.8 181.1 381.8 181.6 382.9C183.4 378.9 186.5 376.3 190.3 374.5C190.4 376 190.5 377.4 190.7 378.9C190.9 380.4 191.4 381.8 192.1 383.2C192.8 381.3 193.9 379.7 194.9 378.2C195.8 380.6 196.7 383.1 197.5 385.5C198 386.9 198.1 388.3 197.8 389.7C197.4 391.7 196.1 393.1 194.3 393.9C192.8 394.6 191.1 394.9 189.4 395.3C189.7 394.8 190 394.4 190.3 394C190.8 393.3 191.2 392.5 191.4 391.6C191.6 390.4 191.4 389.3 190.8 388.3C189.9 387.2 189.1 386.2 188.3 385Z" fill="url(#paint27_linear_4_560)"/>
<path d="M170.3 377.7C170.3 377.8 170.2 377.8 170.2 377.9C170.2 377.9 170.1 378 170.1 378.1L169.7 377.8C169.8 377.7 169.8 377.7 169.8 377.6C169.9 377.4 169.9 377.2 169.8 377C169.7 376.8 169.5 376.6 169.3 376.4C169 376.2 168.7 375.9 168.2 375.6L166.4 374.5L168 371.6L172.3 374L172 374.4L168 372.1H168.2L166.9 374.4L166.8 374.2L168.3 375.1C168.7 375.4 169.1 375.6 169.4 375.8C169.7 376 169.9 376.2 170.1 376.4C170.3 376.6 170.3 376.8 170.4 377C170.5 377.2 170.5 377.5 170.3 377.7Z" fill="white"/>
<path d="M173.2 373L169.8 369.5L170.2 369.1L173 372L172.4 366.9L172.7 366.6L176.1 370.1L175.7 370.5L172.9 367.6L173.5 372.7L173.2 373Z" fill="white"/>
<path d="M180 367.6L178 363.9L175.9 365L176.4 366.1C176.6 366.4 176.7 366.8 176.8 367.1C176.9 367.4 177 367.7 177.1 368C177.2 368.3 177.2 368.5 177.2 368.7C177.2 368.9 177.1 369 177 369.2L176.4 369.4C176.6 369.3 176.7 369.2 176.7 369C176.7 368.8 176.7 368.6 176.7 368.3C176.6 368 176.5 367.7 176.4 367.4C176.3 367.1 176.1 366.7 175.9 366.4L175.2 365L178.1 363.5L180.3 367.6H180ZM177.1 370.7L176.4 369.3L181 366.9L181.7 368.3L181.3 368.5L180.8 367.5L177 369.5L177.5 370.5L177.1 370.7Z" fill="white"/>
<path d="M182.3 366.6L185.2 365.9L185.3 366.3L181.9 367.1L180.8 362.3L184.1 361.6L184.2 362L181.4 362.6L182.3 366.6ZM181.8 364.4L184.3 363.8L184.4 364.2L181.9 364.8L181.8 364.4Z" fill="white"/>
<path d="M186.2 366.3L186.3 361.4H188.1C188.5 361.4 188.9 361.5 189.2 361.6C189.5 361.7 189.7 361.9 189.9 362.2C190.1 362.5 190.1 362.8 190.1 363.1C190.1 363.4 190 363.7 189.8 364C189.6 364.2 189.4 364.4 189.1 364.6C188.8 364.8 188.4 364.8 188 364.8H186.5L186.7 364.6V366.4L186.2 366.3ZM186.8 364.6L186.6 364.3H188.1C188.6 364.3 189 364.2 189.2 364C189.5 363.8 189.6 363.5 189.6 363.1C189.6 362.7 189.5 362.4 189.2 362.2C188.9 362 188.6 361.9 188.1 361.9H186.6L186.8 361.7V364.6Z" fill="white"/>
<path d="M192.9 367.2C192.5 367.1 192.2 366.9 192 366.7C191.7 366.5 191.5 366.3 191.4 366C191.3 365.7 191.1 365.4 191.1 365.1C191.1 364.8 191.1 364.4 191.2 364.1C191.3 363.8 191.4 363.5 191.7 363.2C192 362.9 192.1 362.7 192.4 362.6C192.7 362.5 193 362.4 193.3 362.3C193.6 362.2 194 362.3 194.3 362.4C194.6 362.5 194.9 362.6 195.2 362.8C195.5 363 195.7 363.2 195.8 363.5L195.4 363.7C195.3 363.4 195.1 363.2 194.9 363.1C194.7 362.9 194.5 362.8 194.2 362.8C193.9 362.7 193.6 362.7 193.4 362.7C193.2 362.7 192.9 362.8 192.7 362.9C192.5 363 192.3 363.2 192.1 363.4C191.9 363.6 191.8 363.9 191.7 364.1C191.6 364.4 191.6 364.7 191.6 364.9C191.6 365.2 191.7 365.4 191.8 365.6C191.9 365.8 192.1 366 192.3 366.2C192.5 366.4 192.8 366.5 193 366.6C193.3 366.7 193.5 366.7 193.8 366.7C194.1 366.7 194.3 366.6 194.6 366.4L194.8 366.8C194.5 367 194.2 367.1 193.9 367.1C193.6 367.3 193.3 367.3 192.9 367.2Z" fill="white"/>
<path d="M196.2 368.5L198.4 364.5L198.5 364.7L196.9 363.8L197.1 363.4L200.6 365.3L200.4 365.7L198.8 364.8L199 364.7L196.8 368.7L196.2 368.5Z" fill="white"/>
<path d="M198.6 370L201.9 366.4L203.4 367.8C203.8 368.1 204 368.5 204.1 368.9C204.2 369.3 204.1 369.6 203.8 369.9C203.5 370.2 203.2 370.3 202.9 370.3C202.6 370.3 202.2 370.1 201.9 369.8H202.1C202.5 370.2 202.7 370.5 202.8 370.9C202.9 371.3 202.8 371.6 202.5 371.9C202.2 372.2 201.9 372.4 201.5 372.3C201.1 372.3 200.7 372.1 200.3 371.7L198.6 370ZM199.3 370L200.5 371.1C200.8 371.4 201.1 371.5 201.4 371.6C201.7 371.6 201.9 371.5 202.1 371.3C202.3 371.1 202.4 370.8 202.3 370.6C202.2 370.3 202.1 370.1 201.8 369.8L200.6 368.7L199.3 370ZM200.8 368.3L201.9 369.3C202.2 369.6 202.4 369.7 202.7 369.7C203 369.7 203.2 369.6 203.4 369.4C203.6 369.2 203.7 368.9 203.6 368.7C203.6 368.5 203.4 368.2 203.1 367.9L202 366.9L200.8 368.3Z" fill="white"/>
<path d="M203.3 375.3C203.1 375 203 374.7 202.9 374.3C202.8 373.9 202.8 373.6 202.9 373.3C203 373 203.1 372.7 203.3 372.4C203.5 372.1 203.7 371.9 204 371.7C204.3 371.5 204.6 371.4 204.9 371.3C205.2 371.3 205.5 371.3 205.9 371.3C206.2 371.4 206.5 371.5 206.8 371.7C207.1 371.9 207.3 372.2 207.5 372.5C207.7 372.8 207.8 373.1 207.9 373.5C208 373.8 208 374.2 207.9 374.5C207.8 374.8 207.7 375.1 207.5 375.4C207.3 375.7 207.1 375.9 206.7 376.1C206.4 376.3 206.1 376.4 205.8 376.5C205.5 376.5 205.2 376.5 204.8 376.5C204.5 376.4 204.2 376.3 203.9 376.1C203.7 375.8 203.4 375.6 203.3 375.3ZM203.6 375C203.8 375.3 203.9 375.5 204.2 375.6C204.4 375.8 204.7 375.9 204.9 375.9C205.2 376 205.4 376 205.7 375.9C206 375.9 206.2 375.8 206.5 375.6C206.8 375.4 207 375.3 207.1 375C207.3 374.8 207.4 374.6 207.4 374.3C207.5 374 207.5 373.8 207.4 373.5C207.4 373.2 207.3 373 207.1 372.7C206.9 372.4 206.8 372.2 206.5 372.1C206.2 372 206 371.8 205.8 371.8C205.6 371.8 205.3 371.7 205 371.8C204.7 371.9 204.5 371.9 204.2 372.1C204 372.3 203.8 372.4 203.6 372.7C203.4 372.9 203.3 373.2 203.3 373.4C203.3 373.6 203.2 373.9 203.3 374.2C203.4 374.5 203.5 374.8 203.6 375Z" fill="white"/>
<path d="M198.4 459.8C191.1 459.8 183.9 459.8 176.5 459.8C178.9 455.3 181.4 450.9 183.8 446.4C184.5 447.8 185.2 449 185.9 450.4C187.1 448.1 188.3 445.9 189.6 443.6C192.6 449.1 195.5 454.4 198.4 459.8ZM192.8 451.3C191.8 449.4 190.7 447.6 189.7 445.6C188.5 447.7 187.4 449.8 186.2 452C186.6 451.9 186.9 451.8 187.2 451.7C187.4 452.4 187.6 453 187.9 453.7C188.6 452.7 189.3 451.7 190 450.8C190.6 451.4 191.1 452 191.6 452.6C192 452.1 192.4 451.7 192.8 451.3ZM184.7 452.9C184.8 452.7 184.9 452.5 185 452.4C185.6 451.8 185.5 451.1 185 450.5C184.6 449.9 184.3 449.2 183.9 448.5C183.1 449.9 182.4 451.2 181.7 452.5C182 452.7 182.2 453 182.5 453.2C182.9 452.7 183.3 452.3 183.7 451.8C184 452.1 184.3 452.5 184.7 452.9Z" fill="url(#paint28_linear_4_560)"/>
<path d="M165.9 462.4L170.3 460.2L170.5 460.6L168.1 464.3L168 464.1L172.4 464.4L172.6 464.8L168.2 467L168 466.6L171.7 464.7L171.8 464.8L167.8 464.6L167.7 464.4L169.9 461L170 461.1L166.3 463L165.9 462.4Z" fill="white"/>
<path d="M169.3 468.5L174.4 466.7L174.8 467.1L172.8 472.1L172.4 471.7L174.3 467L174.4 467.2L169.7 468.9L169.3 468.5ZM170.9 468.2L171.3 468L173.3 470L173.1 470.4L170.9 468.2Z" fill="white"/>
<path d="M176 474.1C175.7 473.9 175.4 473.7 175.2 473.4C175 473.1 174.9 472.8 174.8 472.5C174.7 472.2 174.7 471.9 174.8 471.5C174.9 471.1 175 470.9 175.2 470.6C175.4 470.3 175.6 470 175.9 469.9C176.2 469.8 176.5 469.6 176.8 469.5C177.1 469.4 177.4 469.4 177.8 469.5C178.1 469.6 178.5 469.7 178.8 469.9C179.1 470.1 179.4 470.3 179.6 470.6C179.8 470.9 179.9 471.2 180 471.5L179.5 471.6C179.4 471.3 179.3 471.1 179.2 470.9C179.1 470.7 178.8 470.5 178.6 470.4C178.3 470.2 178.1 470.1 177.8 470.1C177.5 470.1 177.3 470.1 177 470.1C176.7 470.2 176.5 470.3 176.3 470.4C176.1 470.6 175.9 470.8 175.7 471C175.5 471.2 175.5 471.5 175.4 471.8C175.4 472.1 175.4 472.3 175.4 472.6C175.5 472.9 175.6 473.1 175.7 473.3C175.8 473.5 176.1 473.7 176.3 473.9C176.5 474 176.8 474.1 177 474.2C177.3 474.2 177.5 474.2 177.8 474.2L177.9 474.7C177.6 474.8 177.3 474.8 176.9 474.7C176.5 474.6 176.3 474.3 176 474.1Z" fill="white"/>
<path d="M180 476L181.4 471.6L181.5 471.8L179.7 471.2L179.8 470.8L183.6 472L183.5 472.4L181.7 471.8L181.9 471.7L180.5 476.1L180 476Z" fill="white"/>
<path d="M184.3 476.6L187.2 476.9V477.3L183.8 477L184.3 472.1L187.6 472.4V472.8L184.8 472.5L184.3 476.6ZM184.5 474.3L187.1 474.6V475L184.5 474.7V474.3Z" fill="white"/>
<path d="M189.1 477.2L188.4 472.3L190.2 472C190.6 471.9 191 472 191.3 472C191.6 472 191.9 472.2 192.1 472.5C192.3 472.7 192.4 473 192.5 473.4C192.5 473.7 192.5 474 192.4 474.3C192.3 474.6 192.1 474.8 191.8 475C191.5 475.2 191.2 475.3 190.8 475.4L189.3 475.6L189.5 475.3L189.8 477.1L189.1 477.2ZM189.4 475.4L189.1 475.2L190.6 475C191.1 474.9 191.4 474.8 191.7 474.5C191.9 474.3 192 473.9 192 473.6C191.9 473.2 191.8 472.9 191.5 472.8C191.2 472.6 190.8 472.6 190.3 472.6L188.8 472.8L189 472.5L189.4 475.4Z" fill="white"/>
<path d="M196.7 475.3C196.4 475.4 196 475.5 195.7 475.5C195.4 475.5 195 475.4 194.8 475.3C194.5 475.2 194.2 475 194 474.8C193.8 474.6 193.6 474.3 193.4 474C193.3 473.7 193.2 473.3 193.2 473C193.2 472.7 193.3 472.4 193.4 472.1C193.5 471.8 193.7 471.5 194 471.3C194.2 471.1 194.5 470.9 194.9 470.7C195.2 470.6 195.6 470.5 195.9 470.5C196.2 470.5 196.5 470.6 196.8 470.7L196.6 471.1C196.3 471 196.1 470.9 195.8 470.9C195.5 470.9 195.3 471 195 471.1C194.7 471.2 194.5 471.4 194.3 471.6C194.1 471.8 194 472 193.9 472.2C193.8 472.4 193.7 472.7 193.7 473C193.7 473.3 193.8 473.5 193.9 473.8C194 474.1 194.2 474.3 194.4 474.5C194.6 474.7 194.8 474.8 195.1 474.9C195.3 475 195.6 475 195.9 475C196.2 475 196.4 474.9 196.7 474.8C197 474.7 197.2 474.5 197.4 474.4C197.6 474.2 197.7 474 197.8 473.7L198.2 473.9C198.1 474.2 197.9 474.5 197.7 474.7C197.3 475 197.1 475.2 196.7 475.3Z" fill="white"/>
<path d="M200.6 473.1L197.9 469.4H198.1L196.6 470.5L196.3 470.1L199.5 467.8L199.8 468.2L198.3 469.3V469.1L201 472.8L200.6 473.1Z" fill="white"/>
<path d="M203.6 470.7L199.9 467.5L201.2 466C201.5 465.6 201.9 465.4 202.2 465.3C202.6 465.2 202.9 465.3 203.2 465.6C203.5 465.9 203.6 466.2 203.6 466.5C203.6 466.9 203.4 467.2 203.1 467.5L203 467.3C203.4 466.9 203.7 466.6 204.1 466.6C204.4 466.5 204.8 466.6 205.1 466.9C205.4 467.2 205.6 467.5 205.5 467.9C205.5 468.3 205.3 468.7 204.9 469.1L203.6 470.7ZM201.9 468.5L202.9 467.4C203.1 467.1 203.3 466.8 203.3 466.6C203.3 466.3 203.2 466.1 203 465.9C202.8 465.7 202.5 465.6 202.3 465.7C202.1 465.8 201.8 465.9 201.6 466.2L200.6 467.3L201.9 468.5ZM203.6 470L204.7 468.7C205 468.4 205.1 468.1 205.1 467.8C205.1 467.5 205 467.3 204.8 467.1C204.6 466.9 204.3 466.8 204.1 466.9C203.8 467 203.6 467.2 203.3 467.5L202.2 468.8L203.6 470Z" fill="white"/>
<path d="M208.3 463.9C208.1 464.2 207.9 464.5 207.7 464.8C207.5 465.1 207.2 465.2 206.9 465.3C206.6 465.4 206.3 465.5 206 465.5C205.7 465.5 205.3 465.4 205 465.3C204.7 465.2 204.4 465 204.2 464.7C204 464.5 203.8 464.2 203.7 463.9C203.6 463.6 203.5 463.3 203.6 462.9C203.6 462.6 203.7 462.2 203.9 461.9C204.1 461.6 204.3 461.3 204.5 461C204.7 460.8 205 460.6 205.3 460.5C205.6 460.4 205.9 460.3 206.2 460.3C206.5 460.3 206.9 460.4 207.2 460.5C207.5 460.6 207.8 460.8 208 461.1C208.2 461.3 208.4 461.6 208.5 461.9C208.6 462.2 208.7 462.5 208.6 462.9C208.6 463.2 208.5 463.6 208.3 463.9ZM207.9 463.7C208 463.4 208.1 463.2 208.1 462.9C208.1 462.6 208.1 462.4 208 462.1C207.9 461.9 207.8 461.6 207.6 461.4C207.4 461.2 207.2 461 206.9 460.9C206.6 460.8 206.4 460.7 206.1 460.7C205.8 460.7 205.6 460.7 205.3 460.8C205.1 460.9 204.8 461 204.6 461.2C204.4 461.4 204.2 461.6 204.1 461.9C204 462.2 203.9 462.4 203.9 462.7C203.9 463 203.9 463.2 204 463.5C204.1 463.7 204.2 464 204.4 464.2C204.6 464.4 204.8 464.6 205.1 464.7C205.4 464.8 205.6 464.9 205.9 464.9C206.2 464.9 206.4 464.9 206.7 464.8C207 464.7 207.2 464.6 207.4 464.4C207.6 464.2 207.8 464 207.9 463.7Z" fill="white"/>
<path d="M226.8 414.9C227.3 414.2 227.1 413.2 226.3 412.6C225.5 411.9 224.5 411.9 223.5 412C221.5 412.2 219.9 413.1 218.8 414.9C218.2 415.8 217.7 416.8 217.2 417.7C216.8 418.4 216.3 419.2 215.8 419.9C214.8 421.2 213.4 421.8 211.8 421.8C211.3 421.8 211 421.5 211 421.1C211 420.7 211.3 420.4 211.8 420.4C213.1 420.4 214.2 419.8 214.9 418.8C215.5 418 215.9 417.1 216.4 416.3C217 415.3 217.6 414.2 218.3 413.3C220.2 411 222.7 410.3 225.6 410.9C227.4 411.3 228.5 412.7 228.4 414.4C228.3 415.5 227.9 416.4 226.9 416.9C226.2 417.3 225.8 417 225.6 416.3C225.5 415.9 225.2 415.8 224.9 415.7C224.2 415.6 223.6 415.9 223.3 416.6C222.1 418.7 223.4 421.5 225.8 422C226.7 422.2 227.5 422 228.3 421.6C229 421.3 229.8 421 230.6 420.7C230.8 420.6 231.1 420.6 231.3 420.7C231.7 420.7 231.9 421 231.9 421.4C231.9 421.8 231.7 422.1 231.3 422.1C230.2 422.1 229.4 422.6 228.5 423.1C226.6 424 224.2 423.5 222.8 422C221.4 420.5 221 418 221.9 416.2C222.6 414.8 224 414.1 225.4 414.6C226 414.3 226.4 414.7 226.8 414.9ZM226.4 426.7C227.3 426.7 228.1 426.5 228.9 426.1C229.7 425.7 230.5 425.3 231.4 425.3C231.8 425.3 232 424.9 232 424.6C232 424.2 231.7 423.9 231.3 423.9C231.1 423.9 230.8 423.9 230.6 423.9C229.7 424.2 228.9 424.5 228.1 424.8C226.9 425.3 225.8 425.3 224.7 424.8C224.3 424.6 223.9 424.4 223.5 424.2C222.2 423.6 220.9 423.6 219.6 424.2C219.2 424.4 218.8 424.6 218.3 424.8C217.2 425.4 216 425.4 214.9 424.8C214.5 424.6 214.1 424.4 213.7 424.2C213 424 212.4 423.9 211.7 423.8C211.3 423.8 211 424.1 211 424.5C211 424.9 211.3 425.2 211.6 425.2C212.5 425.2 213.3 425.6 214 426C215.1 426.6 216.3 426.9 217.5 426.6C218.3 426.4 219 426.1 219.7 425.7C220.8 425.2 222 425.1 223.1 425.7C223.5 425.9 223.8 426.1 224.2 426.2C224.9 426.4 225.6 426.6 226.3 426.8C226.4 426.8 226.4 426.8 226.4 426.7ZM226.4 430.2C227.3 430.2 228.2 429.9 229 429.5C229.8 429.1 230.5 428.8 231.4 428.8C231.8 428.8 232.1 428.5 232.1 428.1C232.1 427.7 231.8 427.4 231.4 427.4C231.2 427.4 230.9 427.4 230.7 427.4C229.9 427.7 229 427.9 228.2 428.3C227 428.9 225.8 428.9 224.6 428.3C224.3 428.1 224 428 223.7 427.8C222.3 427.1 220.8 427.1 219.4 427.8C219.1 427.9 218.8 428.1 218.5 428.3C217.3 428.9 216.1 428.9 214.9 428.3C214.5 428.1 214.2 427.9 213.7 427.8C213.1 427.6 212.4 427.5 211.7 427.4C211.3 427.4 211 427.7 211 428.1C211 428.5 211.3 428.8 211.6 428.8C212.5 428.8 213.3 429.2 214 429.6C215.1 430.2 216.3 430.5 217.5 430.2C218.2 430 219 429.7 219.7 429.4C220.9 428.8 222.1 428.8 223.3 429.4C223.6 429.6 223.9 429.7 224.2 429.8C224.9 430 225.6 430.2 226.3 430.4C226.4 430.3 226.4 430.3 226.4 430.2Z" fill="url(#paint29_linear_4_560)"/>
<path d="M219.6 402L219.5 397.1H220L220.1 402H219.6ZM219.9 399.8V399.3H221.4V399.8H219.9ZM221.5 399.6L221 399.5L222.8 397H223.4L221.5 399.6ZM223 402L221.1 399.6L221.5 399.3L223.6 402H223Z" fill="white"/>
<path d="M226.1 402.6C225.7 402.5 225.4 402.4 225.2 402.2C224.9 402 224.7 401.8 224.5 401.5C224.3 401.2 224.2 400.9 224.2 400.6C224.2 400.3 224.2 399.9 224.3 399.6C224.4 399.3 224.5 398.9 224.7 398.7C224.9 398.4 225.1 398.2 225.4 398.1C225.7 397.9 226 397.8 226.3 397.8C226.6 397.8 227 397.8 227.3 397.9C227.7 398 228 398.1 228.2 398.3C228.4 398.5 228.7 398.7 228.9 399C229.1 399.3 229.2 399.6 229.2 399.9C229.2 400.2 229.2 400.6 229.1 400.9C229 401.2 228.9 401.6 228.7 401.8C228.5 402.1 228.3 402.3 228 402.4C227.7 402.6 227.4 402.7 227.1 402.7C226.8 402.7 226.5 402.7 226.1 402.6ZM226.2 402.2C226.5 402.3 226.8 402.3 227 402.3C227.3 402.3 227.5 402.2 227.7 402C227.9 401.9 228.1 401.7 228.3 401.5C228.5 401.3 228.6 401 228.7 400.8C228.8 400.5 228.8 400.2 228.8 400C228.8 399.7 228.7 399.5 228.5 399.3C228.4 399.1 228.2 398.9 228 398.7C227.8 398.5 227.5 398.4 227.2 398.4C226.9 398.3 226.6 398.3 226.4 398.3C226.1 398.3 225.9 398.4 225.7 398.5C225.5 398.6 225.3 398.8 225.1 399C224.9 399.2 224.8 399.5 224.7 399.7C224.6 400 224.6 400.3 224.7 400.5C224.7 400.8 224.8 401 225 401.2C225.1 401.4 225.3 401.6 225.5 401.8C225.7 402 225.9 402.1 226.2 402.2Z" fill="white"/>
<path d="M229.4 403.6L232.1 399.5L232.5 399.7L232.3 404.1L232.1 404L236 402L236.4 402.2L233.7 406.3L233.3 406L235.6 402.5L235.7 402.6L232.1 404.4L231.9 404.3L232.1 400.2L232.2 400.3L229.9 403.8L229.4 403.6Z" fill="white"/>
<path d="M234.6 407.3L238.5 404.3L238.8 404.6L237.1 408.7L237 408.5L241.4 407.9L241.7 408.2L237.8 411.2L237.5 410.8L240.8 408.3L240.9 408.4L236.9 408.9L236.8 408.7L238.3 404.9L238.4 405L235.1 407.5L234.6 407.3Z" fill="white"/>
<path d="M238.7 412.3C238.7 412.6 238.8 412.8 238.9 413C239 413.2 239.2 413.3 239.6 413.4L240 413.5H240.1L244.1 414L244.3 414.5L239.7 413.9C239.4 413.9 239.1 413.8 238.9 413.6C238.7 413.5 238.6 413.3 238.5 413.1C238.4 412.9 238.4 412.7 238.4 412.4L238.7 412.3ZM239.6 413.6L242.6 410.2L242.8 410.7L240.1 413.7L239.6 413.6Z" fill="white"/>
<path d="M239.7 417.2V416.7L244.6 416.2V416.7L239.7 417.2ZM244.9 419.7V420.2L240 420.7L239.9 420.2L244.9 419.7ZM242.3 420L242 416.8H242.5L242.8 420H242.3Z" fill="white"/>
<path d="M240 422L244.8 422.9L244.7 423.4L240.7 422.6L244.1 426.5L244 427L239.2 426.1L239.3 425.6L243.3 426.4L239.9 422.5L240 422Z" fill="white"/>
<path d="M237.2 430.3L240.2 429.7V430.2L236.9 430.8L237.2 430.3ZM238.7 427.3L243.1 429.5L242.9 430L238.5 427.8L238.7 427.3ZM240.6 428.7L241 428.9L240.3 430.3L239.9 430.1L240.6 428.7ZM240 430.1L240.3 429.7L241.6 432.4L241.3 432.9L240 430.1Z" fill="white"/>
<path d="M237.1 430.7L239.3 435.6L239 436L233.8 434.5L234.2 434.1L239 435.5L238.9 435.7L236.8 431.1L237.1 430.7ZM237.5 432.2L237.7 432.6L235.8 434.8L235.4 434.6L237.5 432.2Z" fill="white"/>
<path d="M229.1 436.2L229.8 437.3H229.6L230.4 436.8L230.6 437.2L229.5 437.9L228.6 436.6L229.1 436.2ZM233.3 434.8L236 438.9L235.6 439.2L233.2 435.5L230.7 437.1L233.1 440.8L232.7 441.1L230 437L233.3 434.8Z" fill="white"/>
<path d="M228.7 437.6L230.1 442.3L229.6 442.4L228.5 438.5L226.6 443.3L226.2 443.4L224.8 438.7L225.3 438.6L226.4 442.5L228.3 437.7L228.7 437.6Z" fill="white"/>
<path d="M220.4 439V440.6L220.3 440.5H221.9C222.3 440.5 222.6 440.6 222.9 440.7C223.2 440.8 223.4 441 223.5 441.3C223.7 441.5 223.7 441.8 223.7 442.2C223.7 442.6 223.6 442.9 223.5 443.2C223.4 443.5 223.1 443.7 222.8 443.8C222.5 443.9 222.2 444 221.8 444H219.9L219.8 439.1L220.4 439ZM220.4 440.7V443.5L220.3 443.4H221.8C222.3 443.4 222.6 443.3 222.9 443.1C223.1 442.9 223.3 442.6 223.3 442.1C223.3 441.7 223.2 441.4 222.9 441.2C222.7 441 222.3 440.9 221.9 440.9H220.3L220.4 440.7ZM223.7 438.9L222.5 440.6H222L223.2 438.9H223.7Z" fill="white"/>
<path d="M180 418.9H193.7" stroke="white" stroke-width="0.5" stroke-miterlimit="10"/>
<path d="M181.8 418.9L184 415.3L183.9 415.2L178 417.5C176 418 173.9 418.4 171.9 418.9C173.9 419.4 176 419.8 178 420.3L183.9 422.6L184 422.5L181.8 418.9Z" fill="white"/>
<path d="M191.9 418.9L189.7 415.3L189.8 415.2L195.7 417.5C197.7 418 199.8 418.4 201.8 418.9C199.8 419.4 197.7 419.8 195.7 420.3L189.8 422.6L189.7 422.5L191.9 418.9Z" fill="white"/>
<path d="M186.9 425.8V412.1" stroke="white" stroke-width="0.5" stroke-miterlimit="10"/>
<path d="M186.9 424L183.3 421.8L183.2 421.9L185.5 427.8C186 429.8 186.4 431.9 186.9 433.9C187.4 431.9 187.8 429.8 188.3 427.8L190.6 421.9L190.5 421.8L186.9 424Z" fill="white"/>
<path d="M186.9 413.9L183.3 416.1L183.2 416L185.5 410.1C186 408.1 186.4 406 186.9 404C187.4 406 187.8 408.1 188.3 410.1L190.6 416L190.5 416.1L186.9 413.9Z" fill="white"/>
<path opacity="0.57" d="M375 0H0V36.5H375V0Z" fill="url(#paint30_linear_4_560)"/>
</g>
<defs>
<radialGradient id="paint0_radial_4_560" cx="0" cy="0" r="1" gradientUnits="userSpaceOnUse" gradientTransform="translate(96.0005 706.497) scale(368.557 1197.05)">
<stop stop-color="#2B203D"/>
<stop offset="0.9946" stop-color="#220028"/>
</radialGradient>
<radialGradient id="paint1_radial_4_560" cx="0" cy="0" r="1" gradientUnits="userSpaceOnUse" gradientTransform="translate(187.5 1210.2) scale(183.016 183.016)">
<stop stop-color="#6900CE"/>
<stop offset="0.0499397" stop-color="#6201BE"/>
<stop offset="0.1838" stop-color="#510598"/>
<stop offset="0.3238" stop-color="#430779"/>
<stop offset="0.4693" stop-color="#380961"/>
<stop offset="0.6229" stop-color="#300B50"/>
<stop offset="0.7898" stop-color="#2B0C46"/>
<stop offset="0.9946" stop-color="#2A0C43"/>
</radialGradient>
<linearGradient id="paint2_linear_4_560" x1="187.645" y1="1027.88" x2="187.645" y2="1190.77" gradientUnits="userSpaceOnUse">
<stop offset="0.00537634" stop-color="#8E1BE1"/>
<stop offset="1" stop-color="#4633BC"/>
</linearGradient>
<linearGradient id="paint3_linear_4_560" x1="330.264" y1="1210.05" x2="234.443" y2="1210.05" gradientUnits="userSpaceOnUse">
<stop offset="0.00537634" stop-color="#FEB298"/>
<stop offset="1" stop-color="#FD7582"/>
</linearGradient>
<linearGradient id="paint4_linear_4_560" x1="187.355" y1="1245.28" x2="187.355" y2="1350.97" gradientUnits="userSpaceOnUse">
<stop stop-color="#FEB298"/>
<stop offset="1" stop-color="#FDFF82"/>
</linearGradient>
<linearGradient id="paint5_linear_4_560" x1="144.377" y1="1210.34" x2="32.7099" y2="1210.34" gradientUnits="userSpaceOnUse">
<stop stop-color="#0E85FF"/>
<stop offset="1" stop-color="#0EE2FF"/>
</linearGradient>
<radialGradient id="paint6_radial_4_560" cx="0" cy="0" r="1" gradientUnits="userSpaceOnUse" gradientTransform="translate(187.5 1210.2) scale(67 67)">
<stop stop-color="#6900CE"/>
<stop offset="0.0115255" stop-color="#6700C9"/>
<stop offset="0.1126" stop-color="#5700A2"/>
<stop offset="0.2205" stop-color="#490080"/>
<stop offset="0.3351" stop-color="#3E0064"/>
<stop offset="0.4584" stop-color="#35004F"/>
<stop offset="0.5949" stop-color="#2F0040"/>
<stop offset="0.7546" stop-color="#2B0037"/>
<stop offset="0.9946" stop-color="#2A0034"/>
</radialGradient>
<linearGradient id="paint7_linear_4_560" x1="187.572" y1="1201.07" x2="187.572" y2="1143.2" gradientUnits="userSpaceOnUse">
<stop stop-color="#6900CE"/>
<stop offset="0.0304866" stop-color="#6200BD"/>
<stop offset="0.1031" stop-color="#54009B"/>
<stop offset="0.1837" stop-color="#47007E"/>
<stop offset="0.2727" stop-color="#3D0067"/>
<stop offset="0.3738" stop-color="#350054"/>
<stop offset="0.494" stop-color="#300048"/>
<stop offset="0.6521" stop-color="#2D0040"/>
<stop offset="0.9946" stop-color="#2C003E"/>
</linearGradient>
<linearGradient id="paint8_linear_4_560" x1="196.622" y1="1210.12" x2="254.5" y2="1210.12" gradientUnits="userSpaceOnUse">
<stop stop-color="#6900CE"/>
<stop offset="0.0304866" stop-color="#6200BD"/>
<stop offset="0.1031" stop-color="#54009B"/>
<stop offset="0.1837" stop-color="#47007E"/>
<stop offset="0.2727" stop-color="#3D0067"/>
<stop offset="0.3738" stop-color="#350054"/>
<stop offset="0.494" stop-color="#300048"/>
<stop offset="0.6521" stop-color="#2D0040"/>
<stop offset="0.9946" stop-color="#2C003E"/>
</linearGradient>
<linearGradient id="paint9_linear_4_560" x1="187.428" y1="1219.32" x2="187.428" y2="1277.2" gradientUnits="userSpaceOnUse">
<stop stop-color="#6900CE"/>
<stop offset="0.0304866" stop-color="#6200BD"/>
<stop offset="0.1031" stop-color="#54009B"/>
<stop offset="0.1837" stop-color="#47007E"/>
<stop offset="0.2727" stop-color="#3D0067"/>
<stop offset="0.3738" stop-color="#350054"/>
<stop offset="0.494" stop-color="#300048"/>
<stop offset="0.6521" stop-color="#2D0040"/>
<stop offset="0.9946" stop-color="#2C003E"/>
</linearGradient>
<linearGradient id="paint10_linear_4_560" x1="178.378" y1="1210.27" x2="120.5" y2="1210.27" gradientUnits="userSpaceOnUse">
<stop stop-color="#6900CE"/>
<stop offset="0.0304866" stop-color="#6200BD"/>
<stop offset="0.1031" stop-color="#54009B"/>
<stop offset="0.1837" stop-color="#47007E"/>
<stop offset="0.2727" stop-color="#3D0067"/>
<stop offset="0.3738" stop-color="#350054"/>
<stop offset="0.494" stop-color="#300048"/>
<stop offset="0.6521" stop-color="#2D0040"/>
<stop offset="0.9946" stop-color="#2C003E"/>
</linearGradient>
<linearGradient id="paint11_linear_4_560" x1="159.446" y1="1216.55" x2="145.408" y2="1202.52" gradientUnits="userSpaceOnUse">
<stop stop-color="#0E85FF"/>
<stop offset="1" stop-color="#0EE2FF"/>
</linearGradient>
<linearGradient id="paint12_linear_4_560" x1="180.775" y1="1170.72" x2="195.06" y2="1185" gradientUnits="userSpaceOnUse">
<stop stop-color="#FE3C95"/>
<stop offset="0.3611" stop-color="#B723DC"/>
<stop offset="1" stop-color="#600DAC"/>
</linearGradient>
<linearGradient id="paint13_linear_4_560" x1="195.157" y1="1240.4" x2="180.513" y2="1255.04" gradientUnits="userSpaceOnUse">
<stop stop-color="#FEA355"/>
<stop offset="1" stop-color="#FDC86C"/>
</linearGradient>
<linearGradient id="paint14_linear_4_560" x1="215.333" y1="1207.44" x2="229.793" y2="1221.9" gradientUnits="userSpaceOnUse">
<stop offset="0.00537634" stop-color="#FE9787"/>
<stop offset="1" stop-color="#FD5F69"/>
</linearGradient>
<radialGradient id="paint15_radial_4_560" cx="0" cy="0" r="1" gradientUnits="userSpaceOnUse" gradientTransform="translate(96.0005 -105.525) scale(368.557 1197.05)">
<stop stop-color="#2B203D"/>
<stop offset="0.9946" stop-color="#220028"/>
</radialGradient>
<radialGradient id="paint16_radial_4_560" cx="0" cy="0" r="1" gradientUnits="userSpaceOnUse" gradientTransform="translate(187.5 418.945) scale(183.016 183.016)">
<stop stop-color="#6900CE"/>
<stop offset="0.0499397" stop-color="#6201BE"/>
<stop offset="0.1838" stop-color="#510598"/>
<stop offset="0.3238" stop-color="#430779"/>
<stop offset="0.4693" stop-color="#380961"/>
<stop offset="0.6229" stop-color="#300B50"/>
<stop offset="0.7898" stop-color="#2B0C46"/>
<stop offset="0.9946" stop-color="#2A0C43"/>
</radialGradient>
<linearGradient id="paint17_linear_4_560" x1="187.645" y1="236.632" x2="187.645" y2="399.522" gradientUnits="userSpaceOnUse">
<stop offset="0.00537634" stop-color="#8E1BE1"/>
<stop offset="1" stop-color="#4633BC"/>
</linearGradient>
<linearGradient id="paint18_linear_4_560" x1="330.264" y1="418.801" x2="234.443" y2="418.801" gradientUnits="userSpaceOnUse">
<stop offset="0.00537634" stop-color="#FEB298"/>
<stop offset="1" stop-color="#FD7582"/>
</linearGradient>
<linearGradient id="paint19_linear_4_560" x1="187.355" y1="454.025" x2="187.355" y2="559.723" gradientUnits="userSpaceOnUse">
<stop stop-color="#FEB298"/>
<stop offset="1" stop-color="#FDFF82"/>
</linearGradient>
<linearGradient id="paint20_linear_4_560" x1="144.377" y1="419.09" x2="32.7101" y2="419.09" gradientUnits="userSpaceOnUse">
<stop stop-color="#0E85FF"/>
<stop offset="1" stop-color="#0EE2FF"/>
</linearGradient>
<radialGradient id="paint21_radial_4_560" cx="0" cy="0" r="1" gradientUnits="userSpaceOnUse" gradientTransform="translate(187.5 418.945) scale(67)">
<stop stop-color="#6900CE"/>
<stop offset="0.0115255" stop-color="#6700C9"/>
<stop offset="0.1126" stop-color="#5700A2"/>
<stop offset="0.2205" stop-color="#490080"/>
<stop offset="0.3351" stop-color="#3E0064"/>
<stop offset="0.4584" stop-color="#35004F"/>
<stop offset="0.5949" stop-color="#2F0040"/>
<stop offset="0.7546" stop-color="#2B0037"/>
<stop offset="0.9946" stop-color="#2A0034"/>
</radialGradient>
<linearGradient id="paint22_linear_4_560" x1="187.572" y1="409.823" x2="187.572" y2="351.945" gradientUnits="userSpaceOnUse">
<stop stop-color="#6900CE"/>
<stop offset="0.0304866" stop-color="#6200BD"/>
<stop offset="0.1031" stop-color="#54009B"/>
<stop offset="0.1837" stop-color="#47007E"/>
<stop offset="0.2727" stop-color="#3D0067"/>
<stop offset="0.3738" stop-color="#350054"/>
<stop offset="0.494" stop-color="#300048"/>
<stop offset="0.6521" stop-color="#2D0040"/>
<stop offset="0.9946" stop-color="#2C003E"/>
</linearGradient>
<linearGradient id="paint23_linear_4_560" x1="196.622" y1="418.873" x2="254.5" y2="418.873" gradientUnits="userSpaceOnUse">
<stop stop-color="#6900CE"/>
<stop offset="0.0304866" stop-color="#6200BD"/>
<stop offset="0.1031" stop-color="#54009B"/>
<stop offset="0.1837" stop-color="#47007E"/>
<stop offset="0.2727" stop-color="#3D0067"/>
<stop offset="0.3738" stop-color="#350054"/>
<stop offset="0.494" stop-color="#300048"/>
<stop offset="0.6521" stop-color="#2D0040"/>
<stop offset="0.9946" stop-color="#2C003E"/>
</linearGradient>
<linearGradient id="paint24_linear_4_560" x1="187.428" y1="428.067" x2="187.428" y2="485.945" gradientUnits="userSpaceOnUse">
<stop stop-color="#6900CE"/>
<stop offset="0.0304866" stop-color="#6200BD"/>
<stop offset="0.1031" stop-color="#54009B"/>
<stop offset="0.1837" stop-color="#47007E"/>
<stop offset="0.2727" stop-color="#3D0067"/>
<stop offset="0.3738" stop-color="#350054"/>
<stop offset="0.494" stop-color="#300048"/>
<stop offset="0.6521" stop-color="#2D0040"/>
<stop offset="0.9946" stop-color="#2C003E"/>
</linearGradient>
<linearGradient id="paint25_linear_4_560" x1="178.378" y1="419.018" x2="120.5" y2="419.018" gradientUnits="userSpaceOnUse">
<stop stop-color="#6900CE"/>
<stop offset="0.0304866" stop-color="#6200BD"/>
<stop offset="0.1031" stop-color="#54009B"/>
<stop offset="0.1837" stop-color="#47007E"/>
<stop offset="0.2727" stop-color="#3D0067"/>
<stop offset="0.3738" stop-color="#350054"/>
<stop offset="0.494" stop-color="#300048"/>
<stop offset="0.6521" stop-color="#2D0040"/>
<stop offset="0.9946" stop-color="#2C003E"/>
</linearGradient>
<linearGradient id="paint26_linear_4_560" x1="159.446" y1="425.303" x2="145.408" y2="411.265" gradientUnits="userSpaceOnUse">
<stop stop-color="#0E85FF"/>
<stop offset="1" stop-color="#0EE2FF"/>
</linearGradient>
<linearGradient id="paint27_linear_4_560" x1="180.775" y1="379.469" x2="195.06" y2="393.753" gradientUnits="userSpaceOnUse">
<stop stop-color="#FE3C95"/>
<stop offset="0.3611" stop-color="#B723DC"/>
<stop offset="1" stop-color="#600DAC"/>
</linearGradient>
<linearGradient id="paint28_linear_4_560" x1="195.157" y1="449.145" x2="180.514" y2="463.788" gradientUnits="userSpaceOnUse">
<stop stop-color="#FEA355"/>
<stop offset="1" stop-color="#FDC86C"/>
</linearGradient>
<linearGradient id="paint29_linear_4_560" x1="215.333" y1="416.19" x2="229.793" y2="430.65" gradientUnits="userSpaceOnUse">
<stop offset="0.00537634" stop-color="#FE9787"/>
<stop offset="1" stop-color="#FD5F69"/>
</linearGradient>
<linearGradient id="paint30_linear_4_560" x1="0" y1="18.2387" x2="375" y2="18.2387" gradientUnits="userSpaceOnUse">
<stop stop-color="#6900CE"/>
<stop offset="0.0499397" stop-color="#6201BE"/>
<stop offset="0.1838" stop-color="#510598"/>
<stop offset="0.3238" stop-color="#430779"/>
<stop offset="0.4693" stop-color="#380961"/>
<stop offset="0.6229" stop-color="#300B50"/>
<stop offset="0.7898" stop-color="#2B0C46"/>
<stop offset="0.9946" stop-color="#2A0C43"/>
</linearGradient>
</defs>
</svg>
